<svg width="12" height="12" viewBox="0 0 12 12" fill="none" xmlns="http://www.w3.org/2000/svg">
<path d="M5.53798 10.6348C5.50614 10.6348 5.47466 10.6282 5.4455 10.6155C5.41633 10.6027 5.39013 10.584 5.36852 10.5607L0.799591 5.61839C0.769134 5.58544 0.748942 5.54433 0.741488 5.50008C0.734034 5.45584 0.73964 5.41038 0.757622 5.36927C0.775603 5.32816 0.805178 5.29318 0.842729 5.26862C0.880279 5.24406 0.924175 5.23098 0.969045 5.23098H3.16828C3.2013 5.23098 3.23393 5.23807 3.26398 5.25176C3.29403 5.26545 3.32079 5.28542 3.34246 5.31034L4.86941 7.06705C5.03444 6.71429 5.35389 6.12694 5.91448 5.41123C6.74321 4.35315 8.28471 2.79705 10.922 1.39231C10.973 1.36517 11.0323 1.35812 11.0882 1.37257C11.1441 1.38702 11.1926 1.4219 11.2241 1.47034C11.2555 1.51878 11.2676 1.57725 11.2581 1.63421C11.2485 1.69116 11.218 1.74246 11.1724 1.77798C11.1624 1.78585 10.1455 2.58662 8.97521 4.05336C7.89817 5.40313 6.46643 7.61021 5.76191 10.4595C5.74954 10.5096 5.72075 10.554 5.68015 10.5858C5.63955 10.6176 5.58947 10.6349 5.53791 10.6349L5.53798 10.6348Z" fill="white"/>
</svg>
