<svg xmlns="http://www.w3.org/2000/svg" data-name="Layer 1" viewBox="0 0 1080 1080"><path fill="#e5a157" d="M126.6,850.9c64.3-90.1,26-243.3,26-243.3h5.6s47.7,124.1,14.9,212.3C173.1,819.9,167,862.7,126.6,850.9Z"/><path d="M139.9,854.7a49.1,49.1,0,0,1-13.7-2.1,1.9,1.9,0,0,1-1.2-1.1,1.8,1.8,0,0,1,.2-1.6c32.9-46.1,38.2-109.4,36.8-154.3A470.2,470.2,0,0,0,150.9,608a1.6,1.6,0,0,1,.3-1.5,1.7,1.7,0,0,1,1.4-.7h5.6a1.9,1.9,0,0,1,1.7,1.1,477.6,477.6,0,0,1,19.8,73.4c4.5,24.5,6.8,47.8,6.7,69.2-.2,26.7-4.1,50.6-11.6,70.8-.3,2.2-3.6,20.5-17.6,29.5A31.2,31.2,0,0,1,139.9,854.7Zm-10.4-4.8q15.3,3.8,25.8-3c13.2-8.5,16.1-27.1,16.1-27.2s0-.3.1-.4c16.8-45.2,11.8-100.2,4.8-138.3A467.5,467.5,0,0,0,157,609.3h-2.2a483.7,483.7,0,0,1,10.7,86.1c.9,28.9-1.1,55.8-6,79.8C153.7,804.4,143.6,829.5,129.5,849.9Z"/><path fill="#3a5584" d="M85.2,557.5s33.3,15.5,45.1,24.9c17.3,13.7,24.3,26.7,24.3,26.7S172.4,542.6,85.2,557.5Z"/><path d="M154.6,610.9a2,2,0,0,1-1.6-.9c0-.2-7-13-23.8-26.3-11.5-9.1-44.4-24.4-44.7-24.6a1.7,1.7,0,0,1-1-1.8,1.7,1.7,0,0,1,1.4-1.5c30.2-5.1,51.4-1.2,63.1,11.6,15,16.4,8.6,41.1,8.3,42.2a1.8,1.8,0,0,1-1.5,1.3ZM91.1,558.4c9.9,4.7,31.2,15.3,40.3,22.6a109.7,109.7,0,0,1,22.3,23.4c1.1-7.5,1.9-23.5-8.3-34.7S117,554.8,91.1,558.4Z"/><path fill="#3a5584" d="M57.2,589.4s40.7.5,57.2,4.3c24.2,5.6,38.1,14.9,38.1,14.9S133.6,539.1,57.2,589.4Z"/><path d="M152.5,610.3l-1-.2c-.1-.1-13.9-9.2-37.5-14.7-16.2-3.7-56.4-4.3-56.8-4.3a1.8,1.8,0,0,1-1.7-1.3,1.7,1.7,0,0,1,.8-1.9c26.1-17.2,48.6-22.5,66.7-15.7,23.6,8.9,30.9,34.8,31.2,35.9a1.8,1.8,0,0,1-.7,1.9A1.7,1.7,0,0,1,152.5,610.3ZM63,587.7c11.9.3,38.9,1.3,51.8,4.3a136.2,136.2,0,0,1,34.4,12.7c-3.1-7.7-11.2-23.1-27.4-29.2S86.1,573.6,63,587.7Z"/><path fill="#3a5584" d="M224.6,538.5s-33.5,23.1-45.1,35.5c-17,18.1-23.4,33.5-23.4,33.5S133.2,539.2,224.6,538.5Z"/><path d="M156.1,609.3h0a1.7,1.7,0,0,1-1.6-1.2c-.4-1.1-8.7-26.7,5.9-47.2,11.3-15.8,32.9-23.9,64.2-24.1h0a1.7,1.7,0,0,1,1.7,1.2,2,2,0,0,1-.7,2c-.3.2-33.4,23.1-44.8,35.2-16.6,17.6-23,32.8-23.1,33A1.8,1.8,0,0,1,156.1,609.3Zm62.8-68.9c-27,1.1-45.7,8.7-55.6,22.5s-8.3,31.5-6.7,39.5a140.4,140.4,0,0,1,21.6-29.6C187.3,563.1,209.2,547.3,218.9,540.4Z"/><path fill="#3a5584" d="M81.7,654.3s27-24.9,40.2-32.2c19.2-10.8,34-12.3,34-12.3S101.2,568,81.7,654.3Z"/><path d="M81.7,656l-.8-.2a1.9,1.9,0,0,1-.9-1.9c6.8-29.8,18.4-48,34.8-53.9,20.9-7.6,41.3,7.8,42.1,8.5a1.6,1.6,0,0,1,.7,1.8,1.8,1.8,0,0,1-1.5,1.3c-.2,0-14.7,1.6-33.4,12-12.8,7.2-39.5,31.7-39.8,32A1.6,1.6,0,0,1,81.7,656Zm45.1-54.5a32.4,32.4,0,0,0-10.9,1.8c-14.1,5.1-24.6,20.6-31.1,45.9,8.1-7.3,26-23,36.2-28.7a110.2,110.2,0,0,1,30.2-11.6C146.3,606,137.1,601.5,126.8,601.5Z"/><path fill="#3a5584" d="M242.2,605.5s-36.2-5.6-51.3-4.4c-21.9,1.8-35,8.7-35,8.7S178.1,544.7,242.2,605.5Z"/><path d="M155.9,611.6a2.8,2.8,0,0,1-1.2-.4,1.9,1.9,0,0,1-.5-1.9c.4-1,8.8-25.2,30.4-30.5,16.8-4.1,36.6,4.4,58.8,25.5a1.7,1.7,0,0,1,.4,2,1.9,1.9,0,0,1-1.9,1c-.3-.1-36.2-5.6-50.8-4.5-21.3,1.8-34.3,8.5-34.4,8.6Zm37.2-30.3a33.1,33.1,0,0,0-7.7.9c-14.7,3.6-22.9,17.3-26.2,24.2a110.8,110.8,0,0,1,31.6-7c11.6-1,35.2,2.1,46,3.6C220.6,588.6,206,581.3,193.1,581.3Z"/><path d="M159.5,647.4a1.7,1.7,0,0,1-1.7-1.3,1.7,1.7,0,0,1,1.3-2.1l9.5-2.3a1.7,1.7,0,0,1,2.1,1.3,1.8,1.8,0,0,1-1.3,2.1l-9.5,2.3Z"/><path d="M168.3,664.2a1.7,1.7,0,0,1-1.7-1.3,1.8,1.8,0,0,1,1.3-2.1l5.7-1.2a1.9,1.9,0,0,1,2.1,1.3,1.7,1.7,0,0,1-1.4,2.1l-5.6,1.2Z"/><path d="M163.8,699a1.6,1.6,0,0,1-1.7-1.3,1.8,1.8,0,0,1,1.3-2.1l9.4-2a1.8,1.8,0,0,1,2.1,1.4,1.7,1.7,0,0,1-1.4,2l-9.4,2Z"/><path d="M170,748.8a1.7,1.7,0,0,1-1.8-1.5,1.9,1.9,0,0,1,1.5-2l14.7-1.9a1.8,1.8,0,0,1,1.9,1.5,1.7,1.7,0,0,1-1.5,2l-14.6,1.9Z"/><path d="M156.8,781.5a1.9,1.9,0,0,1-1.8-1.6,1.8,1.8,0,0,1,1.6-1.9l12.3-1.4a1.7,1.7,0,0,1,2,1.5,1.7,1.7,0,0,1-1.6,1.9L157,781.5Z"/><path d="M156.8,814.1a1.8,1.8,0,0,1-1.8-1.6,1.7,1.7,0,0,1,1.7-1.8l19.2-1.1a1.9,1.9,0,0,1,1.9,1.7,1.8,1.8,0,0,1-1.7,1.8l-19.2,1Z"/><path fill="#3a5584" d="M584.7,835.5,533.1,692.6s64.7,38.9,70.3,136.6Z"/><path d="M584.7,837.2a1.6,1.6,0,0,1-1.6-1.2L531.4,693.2a1.9,1.9,0,0,1,.5-1.9,2,2,0,0,1,2.1-.2c.6.4,16.6,10.2,33.5,32.1,15.6,20.2,34.7,55,37.6,105.9a1.7,1.7,0,0,1-1.2,1.8l-18.6,6.2Zm-48.1-140,49.2,136.1,15.8-5.3c-3.2-49.3-21.7-82.9-36.8-102.5A148.4,148.4,0,0,0,536.6,697.2Z"/><path fill="#3a5584" d="M586.5,807.6l-.9-151.9s48,58.3,20.6,152.3Z"/><path d="M606.2,809.7h-.1l-19.7-.3a1.8,1.8,0,0,1-1.7-1.8l-.8-151.8a1.8,1.8,0,0,1,1.1-1.7,1.9,1.9,0,0,1,2,.5c.5.6,12.3,15.2,20.8,41.5,7.9,24.2,14.3,63.4,0,112.4A1.7,1.7,0,0,1,606.2,809.7Zm-18-3.8,16.7.3c13.5-47.4,7.3-85.3-.3-108.9a146.4,146.4,0,0,0-17.2-36.1Z"/><path fill="#3a5584" d="M622.1,821.5l51.6-142.8S609,717.5,603.4,815.2Z"/><path d="M622.1,823.2h-.6l-18.7-6.2a1.9,1.9,0,0,1-1.2-1.8c3-50.9,22.1-85.7,37.7-105.9,16.9-21.9,32.8-31.6,33.5-32a1.8,1.8,0,0,1,2,.1,1.9,1.9,0,0,1,.6,2L623.7,822.1A1.7,1.7,0,0,1,622.1,823.2ZM605.2,814l15.8,5.3,49.2-136.1a148.1,148.1,0,0,0-28.3,28.3C626.9,731.1,608.3,764.8,605.2,814Z"/><path fill="#ffd7a6" d="M81.1,875.7H960.7c-185.5,0-356.5-114.8-541-94.9-45.6,5-90.6,14.8-135.4,24.7C215.7,820.5,140.2,837.9,81.1,875.7Z"/><path d="M960.7,877.5H81.1a1.8,1.8,0,0,1-1.7-1.3,1.7,1.7,0,0,1,.8-1.9c26.6-17.1,58.8-31.5,98.4-43.9,34.2-10.8,69.3-18.8,105.3-26.7,44.2-9.6,89.9-19.7,135.6-24.6s92.8-2.1,147.1,8.3c48.3,9.3,97,23.8,144.1,37.7,80.9,24,164.6,48.9,250,48.9a1.8,1.8,0,0,1,1.8,1.7A1.8,1.8,0,0,1,960.7,877.5ZM87.2,874H903c-65.9-7.7-130.4-26.9-193.3-45.5-93.9-27.9-190.9-56.6-289.8-45.9-45.6,4.9-91.2,14.9-135.2,24.6C223.2,820.6,147.2,837.3,87.2,874Z"/><path fill="#ffd7a6" d="M60.8,875.7H999.3s-50.3-87.5-180.7-95S60.8,875.7,60.8,875.7Z"/><path d="M999.3,877.5H60.8a1.7,1.7,0,0,1-1.7-1.6,1.7,1.7,0,0,1,1.4-1.9c1.6-.3,158.8-25.9,330-50.3,158.1-22.5,360.6-48.6,428.2-44.7,29.9,1.7,58.1,7.8,83.8,18.1a228.7,228.7,0,0,1,56.4,32.6c28.9,22.7,41.4,44.2,41.9,45.2a1.7,1.7,0,0,1,0,1.7A1.9,1.9,0,0,1,999.3,877.5ZM82.6,874H996.1c-4.2-6.5-16.9-23.9-39.5-41.7-26.1-20.6-71.3-46-138.1-49.8-53.2-3.1-201.1,12.4-427.5,44.7C256.9,846.3,131.4,866.1,82.6,874Z"/><path fill="#ffd7a6" d="M780.8,855.7a14,14,0,0,0,2.3,10,14.4,14.4,0,0,0,7.6,4.9,54.2,54.2,0,0,0,9,1.3c12.2.8,24.5,1.6,36.7,1.9a22.3,22.3,0,0,0,8.1-1,7.4,7.4,0,0,0,5.1-5.9c.2-2.7-1.6-5.3-3.9-6.8s-4.9-2.4-7.5-3.4a38.4,38.4,0,0,1-14.6-11c-1.5-1.9-3.9-24.8-6-26s-4.8-1.1-7.2-1a113.1,113.1,0,0,0-17.5,2.2c-4,.8-9.5,1-10.9,5.4C781.1,829.1,781.1,852.8,780.8,855.7Z"/><path d="M838,875.5h-1.6c-12.3-.3-24.8-1.1-36.8-1.9a43.4,43.4,0,0,1-9.4-1.3,16.4,16.4,0,0,1-8.5-5.5,16,16,0,0,1-2.6-11.2h0c.1-1,.1-4.9.2-8.9.2-11.1.4-19,1-21,1.5-4.7,6.6-5.5,10.3-6.2l1.9-.3a118.8,118.8,0,0,1,17.8-2.3c2.6-.1,5.5-.1,8.1,1.3s2.5,4.2,4.5,16.1c.7,4,1.6,9.4,2.1,10.4a36.7,36.7,0,0,0,13.9,10.4l2,.7a34.3,34.3,0,0,1,5.8,2.8c2.5,1.7,4.9,4.8,4.6,8.5s-2.7,6-6.2,7.4A20.7,20.7,0,0,1,838,875.5Zm-25.8-55.1h-1.7a112.1,112.1,0,0,0-17.3,2.2l-2,.4c-3.9.6-6.8,1.3-7.5,3.8s-.8,13.1-.9,20c-.1,4.4-.1,8-.3,9.1a13,13,0,0,0,2,8.8,12.6,12.6,0,0,0,6.7,4.2,40.6,40.6,0,0,0,8.7,1.2c11.9.8,24.3,1.7,36.5,1.9a19.9,19.9,0,0,0,7.5-.8c1.8-.7,3.8-2.3,3.9-4.4s-1.5-4.2-3.1-5.3a24,24,0,0,0-5.1-2.4l-2-.8a38.8,38.8,0,0,1-15.3-11.5c-.9-1.1-1.5-4.1-2.8-11.9-.8-4.6-2.1-12.2-3-13.8A10.2,10.2,0,0,0,812.2,820.4Z"/><rect width="70.3" height="8.9" x="779.9" y="866.6" fill="#e5a157"/><path d="M850.2,877.3H779.9a1.7,1.7,0,0,1-1.7-1.8v-8.9a1.7,1.7,0,0,1,1.7-1.7h70.3a1.8,1.8,0,0,1,1.8,1.7v8.9A1.8,1.8,0,0,1,850.2,877.3Zm-68.5-3.5h66.8v-5.4H781.7Z"/><path fill="#e5a157" d="M809.8,866.6s8.5-12.4,27-13.7l3.5,2.5s-17.7,3.7-20.8,11.2Z"/><path d="M819.5,868.4h-9.7a1.8,1.8,0,0,1-1.6-1,1.9,1.9,0,0,1,.1-1.8c.4-.5,9.2-13.1,28.3-14.4a2.7,2.7,0,0,1,1.2.3l3.5,2.5a1.8,1.8,0,0,1,.7,1.8,1.7,1.7,0,0,1-1.4,1.3c-4.6,1-17.2,4.8-19.5,10.2A1.8,1.8,0,0,1,819.5,868.4Zm-5.9-3.5h4.9c3.1-5.3,11.9-8.6,17.3-10.1A35.6,35.6,0,0,0,813.6,864.9Z"/><path fill="#ffd7a6" d="M731,855.7a15.1,15.1,0,0,1-2.3,10,14.8,14.8,0,0,1-7.6,4.9,55.4,55.4,0,0,1-9.1,1.3c-12.2.8-24.4,1.6-36.6,1.9-2.8,0-5.6,0-8.1-1s-4.9-3.1-5.1-5.9,1.6-5.3,3.8-6.8,5-2.4,7.5-3.4a37,37,0,0,0,14.6-11c1.6-1.9,3.9-24.8,6.1-26s4.7-1.1,7.2-1a114.7,114.7,0,0,1,17.5,2.2c3.9.8,9.5,1,10.9,5.4C730.6,829.1,730.7,852.8,731,855.7Z"/><path d="M673.7,875.5a21,21,0,0,1-7.1-1c-3.4-1.4-5.9-4.3-6.2-7.4s2.2-6.8,4.7-8.5a31,31,0,0,1,5.8-2.8l1.9-.7a36.7,36.7,0,0,0,13.9-10.4c.6-1,1.5-6.4,2.1-10.4,2.1-11.9,2.9-15.2,4.6-16.1s5.5-1.4,8.1-1.3a120.5,120.5,0,0,1,17.8,2.3l1.9.3c3.7.7,8.8,1.5,10.2,6.2.6,2,.8,9.9,1,21,.1,4,.2,7.9.3,8.9h0a16.5,16.5,0,0,1-2.6,11.2c-2.4,3.2-6,4.7-8.5,5.5a45.2,45.2,0,0,1-9.5,1.3c-12,.8-24.4,1.6-36.7,1.9Zm21.5-54.4c-.8,1.6-2.1,9.2-2.9,13.8-1.3,7.8-1.9,10.8-2.8,11.9a40.2,40.2,0,0,1-15.3,11.5l-2,.8a24.9,24.9,0,0,0-5.2,2.4c-1.5,1.1-3.3,3.1-3.1,5.3s2.1,3.7,4,4.4a19.4,19.4,0,0,0,7.4.8c12.2-.2,24.6-1.1,36.6-1.9a42.4,42.4,0,0,0,8.7-1.2,13,13,0,0,0,6.7-4.2,12.5,12.5,0,0,0,1.9-8.8h0c-.1-1.1-.2-4.7-.2-9.2-.2-6.8-.4-18.3-.9-19.9s-3.6-3.2-7.5-3.8l-2-.4a112.1,112.1,0,0,0-17.3-2.2A13.7,13.7,0,0,0,695.2,821.1Z"/><rect width="70.3" height="8.9" x="661.5" y="866.6" fill="#e5a157" transform="rotate(-180 696.7 871.05)"/><path d="M731.9,877.3H661.5a1.8,1.8,0,0,1-1.7-1.8v-8.9a1.8,1.8,0,0,1,1.7-1.7h70.4a1.8,1.8,0,0,1,1.7,1.7v8.9A1.8,1.8,0,0,1,731.9,877.3Zm-68.6-3.5h66.8v-5.4H663.3Z"/><path fill="#e5a157" d="M702,866.6s-8.5-12.4-27-13.7l-3.5,2.5s17.6,3.7,20.7,11.2Z"/><path d="M702,868.4h-9.8a1.9,1.9,0,0,1-1.6-1.1c-2.2-5.4-14.8-9.2-19.5-10.2a1.6,1.6,0,0,1-1.3-1.3,1.6,1.6,0,0,1,.7-1.8l3.5-2.5a2,2,0,0,1,1.1-.3c19.1,1.3,28,13.9,28.3,14.4a1.7,1.7,0,0,1,.1,1.8A1.8,1.8,0,0,1,702,868.4Zm-8.7-3.5h4.8A35,35,0,0,0,676,854.8C681.3,856.3,690.2,859.6,693.3,864.9Z"/><polygon fill="#e5a157" points="300.8 786.7 291.3 817 304.1 875.7 291.3 875.7 264.3 809.9 267.6 792.8 258.6 767.3 300.8 786.7"/><path d="M304.1,877.5H291.3a1.9,1.9,0,0,1-1.6-1.1l-27-65.8a1.8,1.8,0,0,1-.1-1l3.2-16.6L257,767.8a1.6,1.6,0,0,1,.5-1.8,1.7,1.7,0,0,1,1.9-.3l42.1,19.4a1.9,1.9,0,0,1,1,2.1l-9.4,29.9,12.7,58.3a1.7,1.7,0,0,1-.3,1.4A2.1,2.1,0,0,1,304.1,877.5ZM292.5,874H302l-12.4-56.6a2.8,2.8,0,0,1,.1-.9l9-28.9-37-17,7.6,21.7a2.8,2.8,0,0,1,.1.9l-3.3,16.5Z"/><polygon fill="#e5a157" points="271.1 786.7 261.6 817 274.4 875.7 261.6 875.7 234.6 809.9 237.9 792.8 228.9 767.3 271.1 786.7"/><path d="M274.4,877.5H261.6a1.9,1.9,0,0,1-1.6-1.1l-27-65.8a3.8,3.8,0,0,1-.1-1l3.2-16.6-8.8-25.2a1.7,1.7,0,0,1,.5-1.8,1.7,1.7,0,0,1,1.9-.3l42.1,19.4a1.9,1.9,0,0,1,1,2.1l-9.4,29.9,12.7,58.3a1.7,1.7,0,0,1-1.7,2.1ZM262.8,874h9.5l-12.4-56.6a2.8,2.8,0,0,1,.1-.9l9-28.9-37-17,7.6,21.7a2.8,2.8,0,0,1,.1.9l-3.3,16.5Z"/><polygon fill="#e5a157" points="452.6 767.3 445.3 821.3 445.3 875.7 429.9 875.7 420.8 777.2 452.6 767.3"/><path d="M445.3,877.5H429.9a1.7,1.7,0,0,1-1.7-1.6l-9.1-98.5a1.8,1.8,0,0,1,1.2-1.9l31.7-9.9a1.7,1.7,0,0,1,1.7.3,1.7,1.7,0,0,1,.6,1.6L447,821.4v54.3A1.8,1.8,0,0,1,445.3,877.5ZM431.5,874h12V821l7-51.3-27.8,8.7Z"/><polygon fill="#e5a157" points="410.9 767.3 403.6 821.3 403.6 875.7 388.3 875.7 379.1 777.2 410.9 767.3"/><path d="M403.6,877.5H388.3a1.8,1.8,0,0,1-1.8-1.6l-9.1-98.5a1.8,1.8,0,0,1,1.2-1.9l31.8-9.9a1.6,1.6,0,0,1,1.6.3,1.7,1.7,0,0,1,.6,1.6l-7.3,53.9v54.3A1.8,1.8,0,0,1,403.6,877.5ZM389.8,874h12V821l7-51.3L381,778.4Z"/><path fill="#fff" d="M204.9,702.6a19,19,0,0,1,4.3-12.1,21.8,21.8,0,0,1,3.1-36.9,21.7,21.7,0,0,1,15.1-37.3,21,21,0,0,1,11.3,3.2.3.3,0,0,1-.1-.2,15,15,0,0,1,15-15,14,14,0,0,1,5.8,1.2,21.7,21.7,0,0,1,40.1-4.8,21.2,21.2,0,0,1,20.6,3.4,22.1,22.1,0,0,1,43.6,4.9v.7a16.2,16.2,0,0,1,4.4-.7,14.7,14.7,0,0,1,9.2,3.2,22.1,22.1,0,0,1,44.2,1.4v.5H424a21.8,21.8,0,0,1,20,30.2,21.6,21.6,0,0,1,14.1,20.3v1.9a25.8,25.8,0,0,1,4-.4,21.7,21.7,0,0,1,16,36.4,17,17,0,0,1,4.2,26.7,21.7,21.7,0,0,1-14.5,34.2,15,15,0,0,1-14.7,12.1,14.8,14.8,0,0,1-7-1.7c1.1,2.6-6.7,13.4-14.4,17.2s-21.2,3.4-25.8-.8a22.2,22.2,0,0,1-14.6,5.6,21.8,21.8,0,0,1-17.9-9.5,21.7,21.7,0,0,1-20.3,14,22,22,0,0,1-19-11.2,14.8,14.8,0,0,1-12.4,6.7,15.1,15.1,0,0,1-9.9-3.7c-1.4,5.2-9.1,11.6-20.2,12.4-7.9.7-19.7-1.6-22.2-9.1a14.8,14.8,0,0,1-10.7,4.5,15,15,0,0,1-14.9-15,12.3,12.3,0,0,1,.2-2.7h-.7a19.3,19.3,0,0,1-16.8-28.6h-2.4a19.2,19.2,0,0,1-10.7-35.1A19.3,19.3,0,0,1,204.9,702.6Z"/><path d="M289.1,806.3c-7.2,0-16.5-2.1-20.3-8.2A16.7,16.7,0,0,1,242,784.8v-.9a21,21,0,0,1-19.6-21,20.6,20.6,0,0,1,1.3-7.4,20.9,20.9,0,0,1-13.2-36.9,21.3,21.3,0,0,1-7.4-16,20.9,20.9,0,0,1,3.7-11.8,23.4,23.4,0,0,1,2.7-37.6,23.4,23.4,0,0,1,27.6-36.5,16.9,16.9,0,0,1,16.5-14.2,18.4,18.4,0,0,1,4.7.7,23.5,23.5,0,0,1,22.1-15.7,23.2,23.2,0,0,1,19.9,11.1,23,23,0,0,1,6.4-.9,23.5,23.5,0,0,1,12.4,3.5,23.7,23.7,0,0,1,22.5-16,23.9,23.9,0,0,1,23.8,22.3l2.7-.2a17.7,17.7,0,0,1,7.9,1.9,23.8,23.8,0,0,1,47.2,3.1h.8a23.5,23.5,0,0,1,23.5,23.5,21.1,21.1,0,0,1-1.3,7.5,23.8,23.8,0,0,1,13.7,21.2h2.2a23.5,23.5,0,0,1,23.5,23.4,23.8,23.8,0,0,1-4.9,14.3,18.8,18.8,0,0,1,3.8,27.2,23.5,23.5,0,0,1-15.3,35.6,16.6,16.6,0,0,1-16.1,12.4,15.4,15.4,0,0,1-5.6-1c-1.6,5.2-8.7,13.2-15,16.3-8.3,4.1-20.5,3.9-26.6-.2a23.4,23.4,0,0,1-32.1-2.8,23.6,23.6,0,0,1-20.7,12.4A23.3,23.3,0,0,1,334,792a16.9,16.9,0,0,1-12.3,5.4,16.2,16.2,0,0,1-9.1-2.7c-2.9,5.3-10.4,10.7-20.8,11.5Zm-19.7-12.7h.4a1.6,1.6,0,0,1,1.2,1.2c2.2,6.4,13.3,8.5,20.5,7.9,10.9-.9,17.5-7.1,18.6-11.2a2,2,0,0,1,1.2-1.2,1.8,1.8,0,0,1,1.7.4,13.3,13.3,0,0,0,19.7-2.7,1.8,1.8,0,0,1,1.5-.8,2.1,2.1,0,0,1,1.5.9,20,20,0,0,0,36.1-2.5,1.9,1.9,0,0,1,1.4-1.2,2.1,2.1,0,0,1,1.7.8,19.8,19.8,0,0,0,16.4,8.7,20,20,0,0,0,13.4-5.1,1.8,1.8,0,0,1,2.4,0c3.9,3.6,15.7,4.6,23.8.6s13.7-13,13.5-15.1a2,2,0,0,1,.5-1.9,1.6,1.6,0,0,1,2-.2A13.2,13.2,0,0,0,466,763a1.8,1.8,0,0,1,1.5-1.4,20,20,0,0,0,17.1-19.8,20.3,20.3,0,0,0-3.7-11.7,1.7,1.7,0,0,1,.1-2.2,15.4,15.4,0,0,0,4.2-10.5,15,15,0,0,0-8-13.4,2.1,2.1,0,0,1-.9-1.3,1.6,1.6,0,0,1,.5-1.4,20,20,0,0,0-14.7-33.5,23.1,23.1,0,0,0-3.7.3,1.6,1.6,0,0,1-1.5-.4,2,2,0,0,1-.6-1.4,11.5,11.5,0,0,0,.1-1.8,20,20,0,0,0-13-18.7,1.5,1.5,0,0,1-1-.9,1.7,1.7,0,0,1,0-1.4,20.9,20.9,0,0,0,1.6-7.8,20.1,20.1,0,0,0-20-20l-2.3.2a1.9,1.9,0,0,1-1.4-.5,1.6,1.6,0,0,1-.6-1.3v-.5a20.3,20.3,0,0,0-40.6-1.3,1.7,1.7,0,0,1-2.8,1.3,13.5,13.5,0,0,0-8.2-2.8,12.7,12.7,0,0,0-3.9.6,2.2,2.2,0,0,1-1.6-.3,2.1,2.1,0,0,1-.7-1.5h0V609a20.3,20.3,0,0,0-40.1-4.6,2.1,2.1,0,0,1-1.1,1.3,1.7,1.7,0,0,1-1.7-.3,20.1,20.1,0,0,0-12.3-4.2,20.8,20.8,0,0,0-6.6,1.1,1.8,1.8,0,0,1-2.1-.8A19.9,19.9,0,0,0,280.4,591a20.1,20.1,0,0,0-19.3,14.9,1.4,1.4,0,0,1-.9,1.1,1.4,1.4,0,0,1-1.4.1,13.5,13.5,0,0,0-5.2-1.1,13.3,13.3,0,0,0-13.2,13.3h0a1.7,1.7,0,0,1-2.7,1.5,19.8,19.8,0,0,0-10.3-2.9,20,20,0,0,0-13.9,34.4,1.7,1.7,0,0,1,.6,1.5,1.9,1.9,0,0,1-1,1.3,19.8,19.8,0,0,0-11,17.8,20.1,20.1,0,0,0,8.1,16.1,1.5,1.5,0,0,1,.7,1.2,1.6,1.6,0,0,1-.4,1.3,17.6,17.6,0,0,0-3.9,11,17.3,17.3,0,0,0,7.8,14.5,2,2,0,0,1,.7,1.5,1.9,1.9,0,0,1-.7,1.4,17.5,17.5,0,0,0,9.7,32l2.2-.2a1.9,1.9,0,0,1,1.7.8,1.7,1.7,0,0,1,.1,1.8,17.2,17.2,0,0,0-2.3,8.5,17.5,17.5,0,0,0,17.5,17.5h.6a1.7,1.7,0,0,1,1.4.6,1.5,1.5,0,0,1,.4,1.4,19.4,19.4,0,0,0-.2,2.4,13.2,13.2,0,0,0,22.6,9.3A1.7,1.7,0,0,1,269.4,793.6Zm175-19.3Z"/><path fill="#fff" d="M400.8,584.6a22.4,22.4,0,0,1,5.2.6,26.2,26.2,0,0,1-.7-5.7,23.2,23.2,0,0,1,23.2-23.2,22.6,22.6,0,0,1,7.9,1.4,23.2,23.2,0,0,1,45.2,1.9,24.4,24.4,0,0,1,7.7-1.3,23.2,23.2,0,0,1,23.2,23.2,24.2,24.2,0,0,1-.4,4.7,24.2,24.2,0,0,1,4.7-.5A23.3,23.3,0,1,1,493.6,609a25.2,25.2,0,0,1,.5-4.8,18.6,18.6,0,0,1-4.8.5,22.6,22.6,0,0,1-9-1.8,23.5,23.5,0,0,1-47-.7,18.6,18.6,0,0,1-4.8.5,22.4,22.4,0,0,1-5.2-.6,26.9,26.9,0,0,1,.7,5.7,23.3,23.3,0,1,1-23.2-23.2Z"/><path d="M516.8,633.9A25,25,0,0,1,491.9,609a24.4,24.4,0,0,1,.1-2.7,24.9,24.9,0,0,1-10.2-1,25.3,25.3,0,0,1-50.1-1,32.1,32.1,0,0,1-6.2,0c.1,1.2.2,2.3.2,3.5a25,25,0,1,1-24.9-24.9,15.1,15.1,0,0,1,3,.2c-.1-1.2-.2-2.4-.2-3.6a25,25,0,0,1,24.9-24.9,25.9,25.9,0,0,1,6.8.9,25,25,0,0,1,47.6,1.9,23,23,0,0,1,6.4-.9,25,25,0,0,1,25,25,21.1,21.1,0,0,1-.2,2.6h2.7a25,25,0,1,1,0,49.9Zm-22.7-31.4a1.7,1.7,0,0,1,1.2.5,1.8,1.8,0,0,1,.5,1.6,21.2,21.2,0,0,0-.4,4.4,21.5,21.5,0,1,0,21.4-21.5,21.8,21.8,0,0,0-4.4.4,1.6,1.6,0,0,1-1.6-.4,1.8,1.8,0,0,1-.5-1.6,21.2,21.2,0,0,0,.5-4.4,21.3,21.3,0,0,0-28.6-20.2,2,2,0,0,1-1.5-.2,1.7,1.7,0,0,1-.8-1.2,21.5,21.5,0,0,0-41.8-1.7,1.5,1.5,0,0,1-.9,1,1.4,1.4,0,0,1-1.4.1,22.4,22.4,0,0,0-7.3-1.3,21.5,21.5,0,0,0-21.4,21.5,23.3,23.3,0,0,0,.6,5.3,1.6,1.6,0,0,1-.4,1.6,1.6,1.6,0,0,1-1.7.5,19.6,19.6,0,0,0-4.8-.5,21.5,21.5,0,1,0,21.4,21.4,22.4,22.4,0,0,0-.6-5.2,1.7,1.7,0,0,1,.4-1.7,2.1,2.1,0,0,1,1.7-.5,20.8,20.8,0,0,0,9.3.1,1.5,1.5,0,0,1,1.4.4,2.1,2.1,0,0,1,.7,1.3,21.7,21.7,0,0,0,43.4.6,1.9,1.9,0,0,1,.9-1.4,1.8,1.8,0,0,1,1.6-.1,20.6,20.6,0,0,0,12.7,1.2Z"/><path fill="#fff" d="M389.1,653.5a21.8,21.8,0,0,1,43.6,0,22.3,22.3,0,0,1-1.9,9,21.9,21.9,0,0,1,19,18.4,22.7,22.7,0,0,1,5.9-.8,20,20,0,0,1,6.9,1.2,21.9,21.9,0,0,1,19-18.8,22.3,22.3,0,0,1-1.9-9,21.8,21.8,0,1,1,24.4,21.7,22.3,22.3,0,0,1,1.9,9A21.9,21.9,0,0,1,484.2,706a20,20,0,0,1-6.9-1.2,21.8,21.8,0,0,1-43.2.3,18.7,18.7,0,0,1-5.9.9,21.9,21.9,0,0,1-21.8-21.8,20.8,20.8,0,0,1,2-9A21.9,21.9,0,0,1,389.1,653.5Z"/><path d="M455.7,725.5a23.6,23.6,0,0,1-22.9-18.2,23.8,23.8,0,0,1-4.6.4,23.5,23.5,0,0,1-23.5-23.5,21.3,21.3,0,0,1,1.3-7.6,23.6,23.6,0,1,1,28.5-23.1,24.9,24.9,0,0,1-1.3,7.7,23.6,23.6,0,0,1,18,17.6,24.1,24.1,0,0,1,10,.3,23.4,23.4,0,0,1,18-17.9,24.8,24.8,0,0,1-1.2-7.7,23.5,23.5,0,1,1,28.5,23.1,23.7,23.7,0,0,1-22.3,31.1,20.2,20.2,0,0,1-5.5-.7A23.6,23.6,0,0,1,455.7,725.5Zm-21.6-22.1a1.7,1.7,0,0,1,1,.3,2,2,0,0,1,.8,1.2,20,20,0,0,0,39.6-.3,2,2,0,0,1,.9-1.3,1.7,1.7,0,0,1,1.4-.1,20.1,20.1,0,0,0,26.4-19,21.2,21.2,0,0,0-1.7-8.3,1.8,1.8,0,0,1,0-1.6,1.6,1.6,0,0,1,1.4-.8,20.1,20.1,0,1,0-22.4-20,21.2,21.2,0,0,0,1.7,8.3,1.8,1.8,0,0,1,0,1.6,2,2,0,0,1-1.3.9,19.9,19.9,0,0,0-17.6,17.2,1.3,1.3,0,0,1-.8,1.2,1.6,1.6,0,0,1-1.5.2,19.5,19.5,0,0,0-11.7-.3,1.6,1.6,0,0,1-1.5-.2,1.5,1.5,0,0,1-.7-1.2,20.1,20.1,0,0,0-17.5-16.9,1.6,1.6,0,0,1-1.3-.9,1.8,1.8,0,0,1-.1-1.6,19.7,19.7,0,0,0,1.8-8.3,20.1,20.1,0,1,0-22.4,20,1.6,1.6,0,0,1,1.3.8,1.8,1.8,0,0,1,.1,1.6,19.7,19.7,0,0,0-1.8,8.3,20.2,20.2,0,0,0,25.5,19.3Z"/><path fill="#bf7736" d="M486,607.2l51.2,29.7S511,649.7,486,635,486,607.2,486,607.2Z"/><path d="M512.5,643.9a54.2,54.2,0,0,1-27.4-7.3c-8.1-4.8-12.2-10-12-15.6.2-9,11.6-15.1,12-15.4a1.7,1.7,0,0,1,1.7,0L538,635.4a1.9,1.9,0,0,1,.9,1.6,1.8,1.8,0,0,1-1,1.5A62.8,62.8,0,0,1,512.5,643.9Zm-26.6-34.7c-2.4,1.4-9.2,6.1-9.3,11.9-.1,4.2,3.3,8.4,10.2,12.4,19,11.2,38.9,5.9,46.4,3.2Z"/><path fill="#bf7736" d="M425.4,607.2l-51.3,29.7s26.2,12.8,51.3-1.9S425.4,607.2,425.4,607.2Z"/><path d="M398.8,643.9a63.4,63.4,0,0,1-25.4-5.4,1.8,1.8,0,0,1-1-1.5,1.9,1.9,0,0,1,.9-1.6l51.2-29.8a1.7,1.7,0,0,1,1.7,0c.5.3,11.8,6.4,12,15.4.2,5.6-3.9,10.8-12,15.6A54.2,54.2,0,0,1,398.8,643.9Zm-20.7-7.2c7.6,2.7,27.4,7.9,46.4-3.2,6.9-4,10.3-8.2,10.2-12.4-.1-5.8-6.9-10.5-9.3-11.9Z"/><ellipse cx="455.7" cy="649" fill="#e5a157" rx="41.2" ry="49.7"/><path d="M455.7,700.5c-9,0-19.8-5.8-28.3-15.1S412.7,662,412.7,649s0-26.5,5.5-36,18-15.5,37.5-15.5,31.3,4.9,37.4,15.5,5.5,22.4,5.5,36-5.2,26-14.6,36.4S464.6,700.5,455.7,700.5Zm0-99.5c-39.5,0-39.5,21.2-39.5,48,0,12.2,4.9,24.2,13.8,34s17.7,14,25.7,14,17.8-5.3,25.7-14,13.8-21.8,13.8-34C495.2,622.2,495.2,601,455.7,601Z"/><path d="M445.3,666c0,3.1,2.8,7.6,10.4,7.6s10.4-4.5,10.4-7.6-4.7-3.6-10.4-3.6S445.3,662.9,445.3,666Z"/><path d="M455.7,675.3c-8.9,0-12.2-5.7-12.2-9.3,0-5.4,7.9-5.4,12.2-5.4s12.2,0,12.2,5.4C467.9,669.6,464.5,675.3,455.7,675.3Zm0-11.2c-7.2,0-8.7,1-8.7,1.9s2.3,5.8,8.7,5.8,8.7-3.5,8.7-5.8S462.9,664.1,455.7,664.1Z"/><path fill="#fff" d="M496.6,603.2s-20-13-42.8-13.1a63,63,0,0,0-38.3,13.1s2.4,13.5,15.5,12.1S445,603,445,603s14,10.1,22-.8c0,0-.3,11.6,11,12.6S496.3,609.4,496.6,603.2Z"/><path d="M481.9,617.1A16.8,16.8,0,0,1,466,605.6a16.5,16.5,0,0,1-10.3,3.6,16.7,16.7,0,0,1-9.7-3.1,16.8,16.8,0,0,1-32.5-5.8,1.8,1.8,0,0,1,1.8-1.7,1.8,1.8,0,0,1,1.7,1.7,13.3,13.3,0,0,0,26.3,2.4,1.7,1.7,0,0,1,1.2-1.4,1.8,1.8,0,0,1,1.8.5,13.2,13.2,0,0,0,9.4,3.9,13.3,13.3,0,0,0,10-4.6,1.8,1.8,0,0,1,1.8-.5,1.7,1.7,0,0,1,1.3,1.4,13.2,13.2,0,0,0,13.1,11.6,13.4,13.4,0,0,0,13.3-13.3,1.7,1.7,0,0,1,3.4,0A16.8,16.8,0,0,1,481.9,617.1Z"/><circle cx="483" cy="639" r="4"/><path d="M483,644.7a5.8,5.8,0,0,1-5.7-5.7,5.7,5.7,0,0,1,5.7-5.7,5.6,5.6,0,0,1,5.7,5.7A5.7,5.7,0,0,1,483,644.7Zm0-7.9a2.2,2.2,0,1,0,2.2,2.2A2.2,2.2,0,0,0,483,636.8Z"/><circle cx="429.9" cy="639" r="4"/><path d="M429.9,644.7a5.8,5.8,0,0,1-5.7-5.7,5.8,5.8,0,0,1,11.5,0A5.8,5.8,0,0,1,429.9,644.7Zm0-7.9a2.2,2.2,0,1,0,0,4.4,2.2,2.2,0,1,0,0-4.4Z"/><path d="M429.1,866.1h21.5a0,0,0,0,1,0,0v9.6a0,0,0,0,1,0,0h-17a4.4,4.4,0,0,1-4.4-4.4v-5.2A0,0,0,0,1,429.1,866.1Z" transform="rotate(-180 439.8 870.9)"/><path d="M450.5,877.5H429.1a1.8,1.8,0,0,1-1.8-1.8v-9.6a1.7,1.7,0,0,1,1.8-1.7h17a6.1,6.1,0,0,1,6.2,6.1v5.2A1.8,1.8,0,0,1,450.5,877.5ZM430.8,874h18v-3.5a2.7,2.7,0,0,0-2.7-2.6H430.8Z"/><path d="M389.4,866.1h21.5a0,0,0,0,1,0,0v9.6a0,0,0,0,1,0,0h-17a4.4,4.4,0,0,1-4.4-4.4v-5.2A0,0,0,0,1,389.4,866.1Z" transform="rotate(-180 400.15 870.9)"/><path d="M410.9,877.5H389.4a1.8,1.8,0,0,1-1.7-1.8v-9.6a1.7,1.7,0,0,1,1.7-1.7h17.1a6.1,6.1,0,0,1,6.1,6.1v5.2A1.8,1.8,0,0,1,410.9,877.5ZM391.2,874h17.9v-3.5a2.6,2.6,0,0,0-2.6-2.6H391.2Z"/><path d="M289.2,866.1h21.5a0,0,0,0,1,0,0v9.6a0,0,0,0,1,0,0h-17a4.4,4.4,0,0,1-4.4-4.4v-5.2A0,0,0,0,1,289.2,866.1Z" transform="rotate(-180 299.95 870.9)"/><path d="M310.7,877.5H289.2a1.8,1.8,0,0,1-1.7-1.8v-9.6a1.7,1.7,0,0,1,1.7-1.7h17a6.1,6.1,0,0,1,6.2,6.1v5.2A1.8,1.8,0,0,1,310.7,877.5ZM291,874h17.9v-3.5a2.7,2.7,0,0,0-2.7-2.6H291Z"/><path d="M259.9,866.1h21.5a0,0,0,0,1,0,0v9.6a0,0,0,0,1,0,0h-17a4.4,4.4,0,0,1-4.4-4.4v-5.2A0,0,0,0,1,259.9,866.1Z" transform="rotate(-180 270.65 870.9)"/><path d="M281.4,877.5H259.9a1.8,1.8,0,0,1-1.7-1.8v-9.6a1.7,1.7,0,0,1,1.7-1.7H277a6.1,6.1,0,0,1,6.1,6.1v5.2A1.8,1.8,0,0,1,281.4,877.5ZM261.7,874h17.9v-3.5a2.6,2.6,0,0,0-2.6-2.6H261.7Z"/><path d="M373.6,349.4a1.7,1.7,0,0,1-1.7-1.8v-.2a45.2,45.2,0,0,0-90.3-4.1,1.8,1.8,0,0,1-1.9,1.6,1.7,1.7,0,0,1-1.6-1.9,48.8,48.8,0,0,1,97.3,4.4v.2A1.8,1.8,0,0,1,373.6,349.4Z"/><path d="M465.7,385.8H430a1.9,1.9,0,0,1-1.4-.7,2,2,0,0,1-.2-1.7,31.9,31.9,0,0,0,2.6-12.6,32.4,32.4,0,0,0-56-22.1l-.2.2a1.8,1.8,0,0,1-2.4,0,1.7,1.7,0,0,1-.4-1.9,1.3,1.3,0,0,1,.4-.6,35.9,35.9,0,0,1,62.1,24.4,37.6,37.6,0,0,1-1.9,11.6h33.1a1.7,1.7,0,1,1,0,3.4Z"/><path d="M225.8,372.6H201.2a1.7,1.7,0,0,1-1.7-1.8,1.7,1.7,0,0,1,1.7-1.7h22.9A35.8,35.8,0,0,1,259.9,335a35.4,35.4,0,0,1,20.9,6.7,1.8,1.8,0,0,1,.4,2.5,1.7,1.7,0,0,1-2.4.4,32,32,0,0,0-18.9-6.1,32.4,32.4,0,0,0-32.4,32.3A1.8,1.8,0,0,1,225.8,372.6Z"/><path d="M874.2,272.5H858a1.8,1.8,0,0,1-1.8-1.7A1.8,1.8,0,0,1,858,269h14.2a38.1,38.1,0,0,1-.4-5.9A46,46,0,0,1,961,247.5a1.8,1.8,0,0,1-1.1,2.2,1.7,1.7,0,0,1-2.2-1.1,42.5,42.5,0,0,0-82.4,14.5,45.2,45.2,0,0,0,.6,7.4,1.5,1.5,0,0,1-.4,1.4A1.6,1.6,0,0,1,874.2,272.5Z"/><path d="M1038.3,290.8h-24.9a1.7,1.7,0,0,1-1.4-.7,1.7,1.7,0,0,1-.2-1.7,33.3,33.3,0,0,0,2.1-11.8A33.7,33.7,0,0,0,980.2,243a32.9,32.9,0,0,0-19.8,6.5,1.8,1.8,0,1,1-2.1-2.9,37.2,37.2,0,0,1,59.1,30,34.7,34.7,0,0,1-1.6,10.7h22.5a1.8,1.8,0,0,1,1.7,1.8A1.8,1.8,0,0,1,1038.3,290.8Z"/><path fill="#fff" d="M164.3,218.9a14.6,14.6,0,0,0-14.6,14.6,14.6,14.6,0,0,0-14.6-14.6,14.6,14.6,0,0,0,14.6-14.6A14.6,14.6,0,0,0,164.3,218.9Z"/><path d="M149.7,235.3a1.7,1.7,0,0,1-1.7-1.8,12.9,12.9,0,0,0-12.9-12.9,1.7,1.7,0,1,1,0-3.4A12.9,12.9,0,0,0,148,204.3a1.7,1.7,0,0,1,1.7-1.8,1.8,1.8,0,0,1,1.8,1.8,12.8,12.8,0,0,0,12.8,12.9,1.7,1.7,0,1,1,0,3.4,12.8,12.8,0,0,0-12.8,12.9A1.8,1.8,0,0,1,149.7,235.3Zm-7.3-16.4a16.1,16.1,0,0,1,7.3,7.3,16.6,16.6,0,0,1,7.3-7.3,16.6,16.6,0,0,1-7.3-7.3A16.1,16.1,0,0,1,142.4,218.9Z"/><path fill="#fff" d="M565.5,353.8a14.6,14.6,0,0,0-14.6,14.6,14.6,14.6,0,0,0-14.6-14.6,14.7,14.7,0,0,0,14.6-14.7A14.6,14.6,0,0,0,565.5,353.8Z"/><path d="M550.9,370.1a1.7,1.7,0,0,1-1.8-1.7,12.8,12.8,0,0,0-12.8-12.9,1.8,1.8,0,0,1-1.8-1.7,1.8,1.8,0,0,1,1.8-1.8,12.8,12.8,0,0,0,12.8-12.9,1.8,1.8,0,0,1,1.8-1.7,1.8,1.8,0,0,1,1.7,1.7A12.9,12.9,0,0,0,565.5,352a1.8,1.8,0,0,1,1.8,1.8,1.8,1.8,0,0,1-1.8,1.7,12.9,12.9,0,0,0-12.9,12.9A1.7,1.7,0,0,1,550.9,370.1Zm-7.3-16.3a16.4,16.4,0,0,1,7.3,7.2,15.9,15.9,0,0,1,7.3-7.2,16.6,16.6,0,0,1-7.3-7.3A17.1,17.1,0,0,1,543.6,353.8Z"/><path fill="#ffc943" d="M149.7,260.9a40,40,0,1,1-57.3-50.8,39.3,39.3,0,0,0-3.7,16.8,39.9,39.9,0,0,0,61,34Z"/><path d="M113.4,285.8a41.7,41.7,0,0,1-22-77.2,1.8,1.8,0,0,1,2.1.2,1.7,1.7,0,0,1,.4,2.1,38.2,38.2,0,0,0,34.7,54.2,38.5,38.5,0,0,0,20.2-5.7,1.7,1.7,0,0,1,2.5,2.2A41.9,41.9,0,0,1,113.4,285.8ZM88.7,215a37.6,37.6,0,0,0-13.5,29.1,38.2,38.2,0,0,0,70.1,21,41.3,41.3,0,0,1-16.7,3.5,41.7,41.7,0,0,1-41.7-41.7A39.4,39.4,0,0,1,88.7,215Z"/><path d="M1018.4,877.3H41.7a1.8,1.8,0,0,1-1.7-1.8,1.7,1.7,0,0,1,1.7-1.7h976.7a1.7,1.7,0,0,1,1.7,1.7A1.8,1.8,0,0,1,1018.4,877.3Z"/><path fill="#fff" d="M863.1,467l-20-10.9s2.5-98.6-6.8-112.5S799.4,327,761.6,324c-15.6-1.3-55.7,4.9-74.7,13.6s-38.6,118.8-38.6,118.8l-24.5,10.5,11.6,26.4s34.5-3.7,51.2-21.8L664.1,822.6s100.8,16.4,187.5,2.5L817,483.7s13.9,11.5,32.9,14.2Z"/><path d="M774,832.4a777.8,777.8,0,0,1-110.2-8.1,1.7,1.7,0,0,1-1.4-1.8l22.2-346.6c-17.7,15.6-47.6,19-49,19.1a1.7,1.7,0,0,1-1.8-1l-11.6-26.4a1.7,1.7,0,0,1,0-1.4,1.6,1.6,0,0,1,.9-.9l23.6-10.1c1-5.1,5.6-29.9,12.1-55.3,9.9-39.1,18.8-59.9,27.3-63.9,18.6-8.5,59.1-15.1,75.7-13.8,41,3.3,66.6,6.3,76,20.4s7.4,101.2,7.1,112.5l19,10.4a1.8,1.8,0,0,1,.7,2.4,1.9,1.9,0,0,1-2.4.7l-19.9-11a1.6,1.6,0,0,1-.9-1.5c.7-27.3.8-100.5-6.5-111.5-8.6-12.8-33.4-15.7-73.4-18.9-14.6-1.1-54.4,4.6-73.9,13.5-14.9,6.9-32.2,87.2-37.6,117.5a1.7,1.7,0,0,1-1,1.3l-22.9,9.8,10.4,23.6c6.3-.9,34.6-5.6,48.8-21.1a1.7,1.7,0,0,1,2-.4,1.8,1.8,0,0,1,1.1,1.7L666,821.1c13,2,104.5,14.9,183.7,2.6L815.2,483.8a1.8,1.8,0,0,1,.9-1.7,2,2,0,0,1,2,.2c.1.1,13.8,11.3,32,13.8a1.7,1.7,0,0,1,1.5,2,1.7,1.7,0,0,1-1.9,1.5c-14.1-1.9-25.3-8.6-30.6-12.2L853.3,825a1.8,1.8,0,0,1-1.5,1.9C826.2,831,799.2,832.4,774,832.4Z"/><path fill="#ffd7a6" d="M537.2,492.4c-18.1,3.6-16.1-5.3-16.1-5.3s27.1-5.8,32.2-5.8,7.4,4.9,7.4,4.9,39.3-7.7,63.1-19.3c0,0,12.5,12.3,11.6,26.4,0,0-65.3,8.5-72.6,12.3s-41.3,15.1-41.8,15.1l-16.3,1.1-5.5,1.1a7.3,7.3,0,0,1-4.6-.7l-2.7-1.5a1.4,1.4,0,0,1,.2-2.5l5.4-1.9-.4-1.5a2.4,2.4,0,0,1,2-3.2c4.6-.8,13.6-2.3,18.6-3.4C524.6,506.6,537.2,492.4,537.2,492.4Z"/><path d="M497.9,524.8a8.4,8.4,0,0,1-4.1-1.1l-2.7-1.5a3,3,0,0,1-1.6-2.9,2.9,2.9,0,0,1,2-2.7l3.9-1.4a4.1,4.1,0,0,1,.4-3.4,4.8,4.8,0,0,1,3-2c4.8-.7,13.6-2.2,18.5-3.3s10.7-7.1,15.2-11.6c-5.4.5-9.3-.4-11.4-2.6a6.3,6.3,0,0,1-1.7-5.6,1.7,1.7,0,0,1,1.3-1.3c1.2-.2,27.4-5.9,32.6-5.9a10,10,0,0,1,8.3,4.8c6.8-1.4,40.4-8.7,61.4-19a1.8,1.8,0,0,1,2,.3c.5.6,13.1,13.1,12.2,27.8a1.8,1.8,0,0,1-1.5,1.6c-18.1,2.4-66.3,9.2-72.1,12.2s-41.2,15.2-42.6,15.2l-16.1,1.1-5.4,1.1Zm-4.4-5.2,2,1a4.8,4.8,0,0,0,3.3.6l5.5-1.1h.2l16.3-1.1c2.4-.7,34.1-11.3,41.2-14.9s60.4-10.9,71.7-12.4c0-10.4-7.7-19.8-10.3-22.7-23.9,11.3-62,18.9-62.4,19a1.8,1.8,0,0,1-1.9-1c-.1-.2-1.8-4-5.8-4s-22.1,3.7-30.4,5.5a3.7,3.7,0,0,0,.7,1.4c1.1,1.1,4.2,2.6,13.3.8a1.8,1.8,0,0,1,1.8.8,1.8,1.8,0,0,1-.2,2.1c-1.3,1.5-13.2,14.7-20.4,16.3-5,1.1-13.9,2.6-18.7,3.4a.6.6,0,0,0-.6.4.6.6,0,0,0-.1.6l.5,1.5a1.8,1.8,0,0,1-1.1,2.2Zm27.5-.7h0Z"/><path d="M504.7,523.3h-.6c-1-.4-4.5-1.9-4.7-4.3,0-.8.3-2,2.1-3.1,4.1-2.3,16.2-3.3,18.1-3.5s11.7-3.9,18.6-6.3a1.3,1.3,0,0,1,1.8.9,1.4,1.4,0,0,1-.9,1.9c-18.7,6.4-19,6.4-19.3,6.4s-13.6,1.3-16.9,3.2l-.5.3a6.4,6.4,0,0,0,2.8,1.7,1.5,1.5,0,0,1,.8,1.9A1.5,1.5,0,0,1,504.7,523.3Zm15.1-11h0Z"/><path d="M497.5,517.8a1.6,1.6,0,0,1-1.4-1.1,1.5,1.5,0,0,1,1.1-1.8l22.8-5.6,12.5-5.2a1.5,1.5,0,1,1,1.1,2.7L521,512c0,.1-.1.1-.2.1l-22.9,5.6Z"/><path d="M543.2,496.9a9.5,9.5,0,0,1-5-1.2,4.7,4.7,0,0,1-2.4-3l2.9-.6h-.1a3.6,3.6,0,0,0,1.2,1.2c1.2.6,4.1,1.4,10.7-.7a1.5,1.5,0,0,1,1.8,1,1.4,1.4,0,0,1-1,1.8A27,27,0,0,1,543.2,496.9Z"/><path fill="#ffd7a6" d="M948.1,497c18.2,3.6,16.1-5.3,16.1-5.3s-27.1-5.8-32.2-5.8-7.4,4.9-7.4,4.9-37.7-12.1-61.5-23.8c0,0-14.1,16.8-13.2,30.9,0,0,65.3,8.5,72.7,12.3s41.2,15.1,41.7,15.1l16.4,1.1,5.4,1.1a7.3,7.3,0,0,0,4.6-.7l2.7-1.5a1.4,1.4,0,0,0-.2-2.5l-5.4-1.9.5-1.5a2.5,2.5,0,0,0-2-3.2c-4.6-.8-13.6-2.3-18.7-3.4C960.7,511.2,948.1,497,948.1,497Z"/><path d="M987.4,529.3h-1.6l-5.4-1.1L964.3,527c-1.4,0-35.9-11.9-42.5-15.2s-54.1-9.8-72.1-12.2a1.8,1.8,0,0,1-1.6-1.6c-.8-14.6,13-31.4,13.6-32.1a1.7,1.7,0,0,1,2.1-.4c21,10.2,53.1,21,60,23.2a10,10,0,0,1,8.2-4.6c5.3,0,31.5,5.6,32.6,5.9a1.6,1.6,0,0,1,1.3,1.3,6.5,6.5,0,0,1-1.6,5.6c-2.2,2.2-6,3.1-11.5,2.6,4.5,4.5,11.2,10.7,15.2,11.6s13.7,2.5,18.5,3.3a4.3,4.3,0,0,1,3.5,5.4l3.8,1.4a3,3,0,0,1,2.1,2.6,3,3,0,0,1-1.6,3l-2.8,1.5A8,8,0,0,1,987.4,529.3Zm-22.9-5.7c1.8,0,11.8.7,16.3,1.1h.2l5.5,1.1a5.2,5.2,0,0,0,3.4-.6l1.9-1-4.6-1.6a1.8,1.8,0,0,1-1.1-2.2l.5-1.5a.8.8,0,0,0-.1-.7c0-.1-.2-.3-.5-.3-4.9-.8-13.7-2.3-18.7-3.4-7.3-1.6-19.2-14.8-20.5-16.3a1.8,1.8,0,0,1-.2-2.1,1.7,1.7,0,0,1,1.8-.8c9.2,1.8,12.3.2,13.4-.9a2.8,2.8,0,0,0,.7-1.3c-8.4-1.8-26.7-5.5-30.5-5.5s-5.7,3.8-5.8,4a1.7,1.7,0,0,1-2.1.9c-.4-.1-36.8-11.9-60.5-23.3-2.9,3.7-11.9,16.2-12,27.1,11.3,1.5,64.7,8.7,71.8,12.3S962.2,522.9,964.5,523.6Zm28.2.9Zm-28.4-1h0Z"/><path d="M980.7,527.9a1.5,1.5,0,0,1-1.4-1,1.5,1.5,0,0,1,.9-1.9,6.6,6.6,0,0,0,2.7-1.7l-.5-.4c-3.3-1.8-15.1-3-16.9-3.1-.3,0-.5,0-19.3-6.5a1.3,1.3,0,0,1-.9-1.8,1.4,1.4,0,0,1,1.9-.9c6.9,2.4,17.4,6,18.6,6.3s14,1.2,18,3.5c1.9,1.1,2.1,2.3,2.1,3.1-.2,2.4-3.7,3.9-4.7,4.3Zm-15.2-11h0Z"/><path d="M987.8,522.4h-.4l-22.9-5.6h-.2l-12.6-5.2a1.5,1.5,0,0,1-.8-1.9,1.4,1.4,0,0,1,1.9-.8l12.5,5.2,22.8,5.6a1.5,1.5,0,0,1,1.1,1.8A1.6,1.6,0,0,1,987.8,522.4Z"/><path d="M942.1,501.5A28.1,28.1,0,0,1,934,500a1.5,1.5,0,0,1,.9-2.8c6.6,2,9.5,1.3,10.6.7a2.6,2.6,0,0,0,1.2-1.2l1.4.3,1.4.3a4.7,4.7,0,0,1-2.3,3A9.6,9.6,0,0,1,942.1,501.5Z"/><path d="M817,485.1a1.4,1.4,0,0,1-1.5-1.3c-1.6-14.2-.1-88.4,0-91.5a1.4,1.4,0,0,1,1.5-1.4,1.4,1.4,0,0,1,1.4,1.4c0,.8-1.5,77.2,0,91.2a1.5,1.5,0,0,1-1.3,1.6Z"/><path d="M686.6,472.9h0a1.5,1.5,0,0,1-1.4-1.5l1.4-79.1a1.4,1.4,0,0,1,1.4-1.4h.1a1.4,1.4,0,0,1,1.4,1.4l-1.4,79.2A1.5,1.5,0,0,1,686.6,472.9Z"/><path fill="#fff" d="M716.5,266.3s-10.6-50.2,35.2-50.2,36.9,53.8,36.9,53.8Z"/><path d="M788.6,271.7h-.1l-72.1-3.6a1.8,1.8,0,0,1-1.6-1.4c-.2-1-5.1-25,7.3-40.3,6.4-8,16.4-12.1,29.6-12.1s22.6,4.1,29.3,12c13.8,16.2,9.5,42.8,9.3,43.9A1.6,1.6,0,0,1,788.6,271.7Zm-70.6-7,69.1,3.4c.7-5.8,2.1-26.7-8.8-39.6-6-7.1-15-10.7-26.6-10.7s-21.1,3.6-26.9,10.8C715,240.7,717.2,259.5,718,264.7Z"/><path fill="#ffd7a6" d="M731,335.8l1.4-28.9,38.1,2-.2,26.9s-6.8,6.5-19.4,6.6S731,335.8,731,335.8Z"/><path d="M750.7,344.2c-12.9,0-20.6-6.8-20.9-7.1a2,2,0,0,1-.6-1.4l1.4-28.8a3.1,3.1,0,0,1,.6-1.3,2,2,0,0,1,1.3-.4l38.1,1.9a1.8,1.8,0,0,1,1.7,1.8l-.3,26.9a1.7,1.7,0,0,1-.5,1.2c-.3.3-7.4,7.1-20.6,7.2ZM732.8,335a30.9,30.9,0,0,0,18.1,5.7c9.8-.1,15.9-4.3,17.6-5.7l.3-24.5L734,308.8Zm-1.8.8Z"/><path fill="#ffd7a6" d="M784.4,264.7a5.7,5.7,0,0,1,6.2,1.2,6.8,6.8,0,0,1,1.8,6.1,9.5,9.5,0,0,1-3.3,5.7,16.5,16.5,0,0,1-5.9,3s1.5,33-30.5,33-30.5-33-30.5-33a16.5,16.5,0,0,1-5.9-3A10.1,10.1,0,0,1,713,272a7.1,7.1,0,0,1,1.8-6.1,5.7,5.7,0,0,1,6.2-1.2l.2-6.6s8.4-11,31.5-11,31,11.3,31,11.3Z"/><path d="M752.7,315.5c-9.7,0-17.5-3-23.1-8.8-8.2-8.6-9.1-20.7-9.1-24.7a17.9,17.9,0,0,1-5.3-3,11.6,11.6,0,0,1-3.9-6.7,8.9,8.9,0,0,1,2.3-7.7,7.8,7.8,0,0,1,5.7-2.1l.2-4.4a1.7,1.7,0,0,1,.3-1c.4-.5,9.2-11.7,32.9-11.7s32.1,11.5,32.5,12l.3.8.4,4.3a7.7,7.7,0,0,1,5.9,2.1,9.3,9.3,0,0,1,2.4,7.7,11.5,11.5,0,0,1-4,6.7,18.7,18.7,0,0,1-5.2,3c-.1,4-1,16.1-9.2,24.7C770.3,312.5,762.5,315.5,752.7,315.5ZM718.8,266a3.9,3.9,0,0,0-2.7,1.1,5.4,5.4,0,0,0-1.4,4.6,8.1,8.1,0,0,0,2.8,4.6,12.8,12.8,0,0,0,5.2,2.7,1.9,1.9,0,0,1,1.3,1.8c0,.1-.6,14.4,8.1,23.5,4.9,5.1,11.9,7.7,20.6,7.7s15.7-2.6,20.6-7.7c8.7-9.1,8.2-23.4,8.2-23.5a1.7,1.7,0,0,1,1.2-1.8,13.3,13.3,0,0,0,5.3-2.7,7.9,7.9,0,0,0,2.7-4.6,5.3,5.3,0,0,0-1.3-4.6,3.9,3.9,0,0,0-4.2-.8,1.5,1.5,0,0,1-1.6,0,1.7,1.7,0,0,1-.9-1.4l-.6-5.8c-1.5-1.8-9.8-10.3-29.4-10.3s-28,8.1-29.8,10v6a1.9,1.9,0,0,1-.9,1.4,1.5,1.5,0,0,1-1.7.1A3.2,3.2,0,0,0,718.8,266Z"/><path d="M728.2,266.9a1.5,1.5,0,0,1-1.1-.4,1.7,1.7,0,0,1-.3-2.4c.2-.3,4.6-5.6,14.6-5.2a1.6,1.6,0,0,1,1.6,1.8,1.7,1.7,0,0,1-1.8,1.7c-8.1-.4-11.5,3.7-11.6,3.9A2,2,0,0,1,728.2,266.9Z"/><path d="M774,266.9a1.7,1.7,0,0,1-1.4-.6c-.2-.2-3.6-4.3-11.7-3.9a1.8,1.8,0,0,1-1.8-1.7,1.7,1.7,0,0,1,1.7-1.8c9.9-.4,14.3,4.9,14.5,5.2a1.7,1.7,0,0,1-.3,2.4A1.4,1.4,0,0,1,774,266.9Z"/><path fill="#bf7736" d="M783.2,280.7l.5-22.3-4.2-3.9c-.7,15.4-5.5,37.3-5.5,37.3s-5.9-5.6-22.6-5.4-20.8,4.8-20.8,4.8c-5.6-12.5-4.5-37.2-4.5-37.2s-3.7,2.4-4.9,4.1l1,22.6s-4.9,38,30.1,38.6S783.2,280.7,783.2,280.7Z"/><path d="M753.2,321.1h-.9c-10.3-.2-18.3-3.6-23.8-10-9.9-11.4-8.3-28.5-8-30.4l-1-22.5a1.1,1.1,0,0,1,.3-1.1c1.4-1.9,4.9-4.3,5.3-4.6a1.7,1.7,0,0,1,1.8,0,1.7,1.7,0,0,1,.9,1.6c0,.2-.9,22,3.6,34.4,2.7-1.5,8.6-3.6,20-3.8s18.2,2.4,21.4,4.2c1.3-6.2,4.4-22.5,5-34.5a1.7,1.7,0,0,1,1.1-1.6,1.7,1.7,0,0,1,1.8.4l4.2,3.9a1.8,1.8,0,0,1,.6,1.3l-.5,22.3c.1,1.7,1.6,20-9,31.4C770.6,318.1,762.9,321.1,753.2,321.1ZM723,258.7l1,21.9a.4.4,0,0,1-.1.3c0,.2-2,17.3,7.2,28q7.4,8.4,21.3,8.7c9,.2,16.1-2.5,21.1-7.8,9.7-10.7,8-28.7,8-28.9v-.2l.5-21.6-1-.9c-1.2,15-5.3,33.7-5.3,33.9a1.6,1.6,0,0,1-1.2,1.3,1.5,1.5,0,0,1-1.7-.4c-.1,0-5.8-5-21.3-4.8s-19.6,4.1-19.7,4.2a1.7,1.7,0,0,1-1.5.5,1.7,1.7,0,0,1-1.3-1c-4.5-9.9-4.8-26.9-4.8-34.3Z"/><path d="M745.2,287.9a1.9,1.9,0,0,1-1.5-.8,1.8,1.8,0,0,1,.5-2.4c7-4.6,5.8-18.1,5.8-18.2a1.7,1.7,0,0,1,1.6-1.9,1.8,1.8,0,0,1,1.9,1.6c0,.6,1.4,15.7-7.3,21.4A1.9,1.9,0,0,1,745.2,287.9Z"/><circle cx="737.5" cy="270.5" r="3.3"/><circle cx="764.5" cy="270.5" r="3.3"/><path d="M751.8,307.3c-4.7,0-8.1-1.3-10.2-4a10.8,10.8,0,0,1-2-8.8,1.8,1.8,0,0,1,1.7-1.4h22.2a1.7,1.7,0,0,1,1.7,1.6,11.9,11.9,0,0,1-2.8,8.6C760.1,306,756.5,307.3,751.8,307.3Zm-8.9-10.7a7.4,7.4,0,0,0,1.4,4.6c1.4,1.7,4,2.6,7.5,2.6s6.3-.9,8-2.8a7.6,7.6,0,0,0,1.9-4.4Z"/><path d="M750.9,522.7a1.8,1.8,0,0,1-1.8-1.8V342.4a1.7,1.7,0,0,1,1.8-1.7,1.6,1.6,0,0,1,1.7,1.7V520.9A1.7,1.7,0,0,1,750.9,522.7Z"/></svg>