<svg width="672" height="375" viewBox="0 0 672 375" fill="none" xmlns="http://www.w3.org/2000/svg">
<g clip-path="url(#clip0_429_297)">
<path d="M444.999 118.16L448.939 118.05C449.016 118.047 449.091 118.069 449.153 118.112C449.216 118.155 449.263 118.218 449.287 118.291C449.31 118.363 449.31 118.441 449.285 118.513C449.26 118.585 449.213 118.647 449.15 118.69L445.89 120.9C445.824 120.943 445.774 121.006 445.748 121.081C445.723 121.155 445.723 121.236 445.749 121.31L447.08 125.02C447.105 125.092 447.107 125.17 447.084 125.243C447.061 125.316 447.015 125.38 446.953 125.424C446.89 125.468 446.815 125.491 446.739 125.488C446.662 125.486 446.589 125.458 446.53 125.41L443.419 123C443.358 122.952 443.282 122.926 443.205 122.926C443.127 122.926 443.051 122.952 442.989 123L439.869 125.4C439.809 125.446 439.736 125.471 439.66 125.471C439.584 125.472 439.51 125.448 439.449 125.402C439.389 125.357 439.344 125.294 439.322 125.221C439.301 125.149 439.303 125.071 439.33 125L440.659 121.3C440.687 121.227 440.688 121.147 440.665 121.073C440.641 120.998 440.594 120.934 440.53 120.89L437.28 118.67C437.216 118.627 437.169 118.565 437.144 118.493C437.119 118.421 437.119 118.343 437.142 118.271C437.166 118.198 437.213 118.135 437.276 118.092C437.338 118.049 437.413 118.027 437.489 118.03L441.429 118.15C441.506 118.151 441.58 118.127 441.641 118.082C441.703 118.037 441.748 117.973 441.77 117.9L442.879 114.12C442.898 114.044 442.942 113.976 443.003 113.928C443.065 113.879 443.141 113.853 443.219 113.853C443.298 113.853 443.374 113.879 443.436 113.928C443.497 113.976 443.541 114.044 443.559 114.12L444.65 117.91C444.672 117.985 444.718 118.05 444.782 118.095C444.845 118.14 444.922 118.163 444.999 118.16Z" fill="#58AB75"/>
<path d="M465.89 262.98C465.922 262.954 465.947 262.921 465.964 262.884C465.982 262.846 465.991 262.806 465.991 262.765C465.991 262.724 465.982 262.683 465.964 262.646C465.947 262.609 465.922 262.576 465.89 262.55C454.61 253.71 451.9 239.15 453.32 225.26C455.8 200.82 473.88 183.53 498.9 184.79C520.37 185.87 534.34 199.94 538.6 220.21C539.573 224.863 540.01 230.893 539.91 238.3C539.797 247.053 539.783 255.157 539.87 262.61C539.873 262.746 539.929 262.876 540.026 262.971C540.123 263.067 540.254 263.12 540.39 263.12L582.98 263.14C583.071 263.14 583.162 263.122 583.246 263.087C583.331 263.051 583.407 262.999 583.472 262.934C583.536 262.869 583.586 262.792 583.62 262.707C583.654 262.622 583.671 262.531 583.67 262.44C583.55 250.273 583.577 239.737 583.75 230.83C584.27 203.48 602.9 181.98 631.66 184.93C645.973 186.397 656.73 193.197 663.93 205.33C670.53 216.47 671.65 229.92 669.7 242.79C667.02 260.43 657.08 272.26 639.03 276.48C633.643 277.733 628.203 278.363 622.71 278.37C558.397 278.423 493.79 278.417 428.89 278.35C402.1 278.32 388.47 261.31 388.41 235.42C388.343 204.54 388.34 174.223 388.4 144.47C388.42 132.19 406.76 132.2 406.75 144.69C406.73 173.81 406.743 204.313 406.79 236.2C406.81 251.94 414.64 262.93 431.61 263.06C442.937 263.147 454.263 263.157 465.59 263.09C465.703 263.09 465.803 263.053 465.89 262.98ZM472.67 220.5C469.16 234.94 471.67 254.53 487.75 260.61C491.617 262.077 495.34 262.86 498.92 262.96C506.053 263.173 513.43 263.213 521.05 263.08C521.43 263.073 521.62 262.88 521.62 262.5C521.707 253.613 521.707 244.483 521.62 235.11C521.52 224.89 520.1 214.99 513.5 207.27C510.247 203.457 506.083 201.167 501.01 200.4C486.16 198.14 476.01 206.79 472.67 220.5ZM624.6 200.1C608.28 201.62 602.27 216.61 602.09 231.07C601.95 242.09 601.933 252.573 602.04 262.52C602.04 262.933 602.247 263.14 602.66 263.14C608.973 263.14 615.44 263.127 622.06 263.1C638.6 263.01 649.69 255.11 651.74 238.31C653.37 224.99 650.61 210.57 639.01 203.27C634.85 200.65 630.047 199.593 624.6 200.1Z" fill="#58AB75"/>
<path d="M481.972 165.87C488.097 165.891 493.079 161.033 493.1 155.019C493.121 149.004 488.173 144.111 482.048 144.09C475.923 144.069 470.941 148.927 470.92 154.941C470.899 160.956 475.847 165.848 481.972 165.87Z" fill="#58AB75"/>
<path d="M510.9 165.98C516.97 165.98 521.89 161.06 521.89 154.99C521.89 148.92 516.97 144 510.9 144C504.831 144 499.91 148.92 499.91 154.99C499.91 161.06 504.831 165.98 510.9 165.98Z" fill="#58AB75"/>
<path d="M351.2 168.75C357.27 168.75 362.19 163.83 362.19 157.76C362.19 151.69 357.27 146.77 351.2 146.77C345.13 146.77 340.21 151.69 340.21 157.76C340.21 163.83 345.13 168.75 351.2 168.75Z" fill="#58AB75"/>
<path d="M68.5296 172.18L74.0696 172.06C74.1667 172.057 74.2622 172.085 74.3418 172.141C74.4214 172.197 74.4809 172.277 74.5113 172.369C74.5416 172.461 74.5413 172.561 74.5104 172.653C74.4795 172.745 74.4196 172.825 74.3396 172.88L69.7796 176.05C69.7002 176.105 69.6407 176.185 69.6101 176.277C69.5795 176.368 69.5793 176.468 69.6096 176.56L71.4396 181.8C71.4736 181.892 71.4767 181.992 71.4483 182.086C71.42 182.18 71.3618 182.262 71.2826 182.32C71.2033 182.377 71.1074 182.408 71.0094 182.406C70.9114 182.404 70.8167 182.37 70.7396 182.31L66.3196 178.96C66.2417 178.901 66.147 178.87 66.0496 178.87C65.9523 178.87 65.8575 178.901 65.7796 178.96L61.3596 182.31C61.2825 182.37 61.1878 182.404 61.0898 182.406C60.9918 182.408 60.8959 182.377 60.8167 182.32C60.7375 182.262 60.6793 182.18 60.6509 182.086C60.6226 181.992 60.6256 181.892 60.6596 181.8L62.4896 176.56C62.52 176.468 62.5198 176.368 62.4892 176.277C62.4585 176.185 62.3991 176.105 62.3196 176.05L57.7596 172.88C57.6797 172.825 57.6198 172.745 57.5888 172.653C57.5579 172.561 57.5576 172.461 57.588 172.369C57.6184 172.277 57.6778 172.197 57.7574 172.141C57.837 172.085 57.9325 172.057 58.0296 172.06L63.5696 172.18C63.6695 172.184 63.768 172.155 63.8495 172.097C63.931 172.039 63.9908 171.955 64.0196 171.86L65.6196 166.55C65.648 166.458 65.705 166.377 65.7824 166.32C65.8598 166.263 65.9535 166.232 66.0496 166.232C66.1458 166.232 66.2395 166.263 66.3168 166.32C66.3942 166.377 66.4513 166.458 66.4796 166.55L68.0796 171.86C68.1084 171.955 68.1683 172.039 68.2498 172.097C68.3313 172.155 68.4297 172.184 68.5296 172.18Z" fill="#58AB75"/>
<path d="M240.59 283.02C242.87 271.75 239.05 260.61 233.71 250.39C228.824 241.05 224.854 232.893 221.8 225.92C218.12 217.51 216.64 206.85 219.44 198.02C225.48 178.91 247.25 174.01 265.74 174.31C278.9 174.52 289.39 183.77 293.29 195.95C294.417 199.477 294.927 204.91 294.82 212.25C294.72 218.883 294.684 225.953 294.71 233.46C294.75 245.8 297.35 258.16 311.08 261.86C319.98 264.26 330.07 263.86 336.54 256.9C340.16 253.02 341.977 248.197 341.99 242.43C342.03 227.397 342.03 212.223 341.99 196.91C341.95 184.45 360.46 184.27 360.39 197.33C360.324 210.67 360.344 224.227 360.45 238C360.504 244.733 360.007 249.71 358.96 252.93C354.67 266.13 343.83 276.09 330.16 277.94C324.6 278.69 318.56 278.49 312.88 278.16C288.57 276.71 276.59 259.68 276.43 236.54C276.35 224.54 276.334 212.893 276.38 201.6C276.41 196.85 273.13 191.29 268.29 190.08C266.204 189.567 263.614 189.443 260.52 189.71C254.014 190.283 248.797 191.747 244.87 194.1C234.44 200.35 234.86 211.34 239.43 221.15C249.57 242.95 264.63 263.49 257.75 288.8C251.31 312.52 229.07 322.07 205.73 323.74C192.304 324.707 178.3 322.813 163.72 318.06C161.527 317.347 159.93 316.467 158.93 315.42C153.45 309.67 160.11 301.47 167.33 303.72C180.404 307.793 193.337 309.327 206.13 308.32C221.01 307.14 237.27 299.38 240.59 283.02Z" fill="#58AB75"/>
<path d="M181.675 290.92C187.8 290.866 192.722 285.947 192.67 279.933C192.617 273.919 187.61 269.087 181.485 269.141C175.36 269.194 170.438 274.113 170.491 280.127C170.543 286.141 175.551 290.973 181.675 290.92Z" fill="#58AB75"/>
<path d="M210.559 291.02C216.629 291.02 221.549 286.1 221.549 280.03C221.549 273.96 216.629 269.04 210.559 269.04C204.49 269.04 199.569 273.96 199.569 280.03C199.569 286.1 204.49 291.02 210.559 291.02Z" fill="#58AB75"/>
<path d="M35.3997 309.9L46.2698 309.62C46.3937 309.612 46.5169 309.645 46.6199 309.714C46.723 309.784 46.8001 309.885 46.839 310.003C46.878 310.121 46.8766 310.249 46.8351 310.366C46.7936 310.483 46.7143 310.583 46.6098 310.65L37.6497 316.81C37.5479 316.88 37.4722 316.982 37.4342 317.099C37.3962 317.217 37.3982 317.344 37.4398 317.46L41.0597 327.71C41.1 327.824 41.1023 327.948 41.0664 328.063C41.0304 328.179 40.9581 328.279 40.8602 328.35C40.7623 328.421 40.6441 328.458 40.5233 328.457C40.4024 328.455 40.2854 328.414 40.1898 328.34L31.5597 321.73C31.4621 321.655 31.3426 321.615 31.2198 321.615C31.0969 321.615 30.9774 321.655 30.8798 321.73L22.2498 328.34C22.1541 328.414 22.0371 328.455 21.9162 328.457C21.7954 328.458 21.6772 328.421 21.5793 328.35C21.4814 328.279 21.4091 328.179 21.3731 328.063C21.3372 327.948 21.3395 327.824 21.3798 327.71L24.9998 317.46C25.0414 317.344 25.0433 317.217 25.0053 317.099C24.9674 316.982 24.8915 316.88 24.7897 316.81L15.8298 310.65C15.7252 310.583 15.6459 310.483 15.6044 310.366C15.5629 310.249 15.5615 310.121 15.6005 310.003C15.6394 309.885 15.7165 309.784 15.8195 309.714C15.9226 309.645 16.0458 309.612 16.1697 309.62L27.0397 309.9C27.1626 309.903 27.283 309.865 27.3824 309.793C27.4818 309.721 27.5547 309.618 27.5897 309.5L30.6797 299.08C30.7122 298.962 30.7827 298.857 30.8802 298.783C30.9778 298.709 31.0971 298.668 31.2198 298.668C31.3424 298.668 31.4617 298.709 31.5593 298.783C31.6568 298.857 31.7273 298.962 31.7597 299.08L34.8498 309.5C34.8848 309.618 34.9577 309.721 35.0571 309.793C35.1565 309.865 35.2769 309.903 35.3997 309.9Z" fill="#58AB75"/>
<path d="M336.46 333.27L342.23 333.17C342.305 333.171 342.379 333.195 342.44 333.24C342.501 333.285 342.546 333.347 342.569 333.419C342.592 333.491 342.592 333.569 342.569 333.641C342.546 333.712 342.501 333.775 342.44 333.82L337.72 337.13C337.653 337.174 337.603 337.24 337.578 337.316C337.552 337.392 337.553 337.474 337.58 337.55L339.46 343C339.485 343.072 339.486 343.15 339.464 343.223C339.441 343.296 339.396 343.36 339.335 343.406C339.274 343.452 339.199 343.477 339.123 343.477C339.047 343.478 338.972 343.454 338.91 343.41L334.3 339.93C334.237 339.881 334.16 339.855 334.08 339.855C334 339.855 333.923 339.881 333.86 339.93L329.25 343.41C329.188 343.454 329.113 343.478 329.037 343.477C328.961 343.477 328.886 343.452 328.825 343.406C328.764 343.36 328.719 343.296 328.696 343.223C328.674 343.15 328.675 343.072 328.7 343L330.58 337.55C330.607 337.474 330.608 337.392 330.582 337.316C330.557 337.24 330.507 337.174 330.44 337.13L325.72 333.82C325.659 333.775 325.614 333.712 325.591 333.641C325.567 333.569 325.567 333.491 325.591 333.419C325.614 333.347 325.659 333.285 325.72 333.24C325.781 333.195 325.854 333.171 325.93 333.17L331.7 333.27C331.777 333.272 331.853 333.248 331.916 333.203C331.979 333.158 332.026 333.094 332.05 333.02L333.74 327.5C333.765 327.429 333.81 327.368 333.871 327.325C333.932 327.282 334.005 327.258 334.08 327.258C334.155 327.258 334.228 327.282 334.289 327.325C334.349 327.368 334.395 327.429 334.42 327.5L336.11 333.02C336.134 333.094 336.18 333.158 336.244 333.203C336.307 333.248 336.382 333.272 336.46 333.27Z" fill="#58AB75"/>
<path d="M124.38 355.14C128.318 355.14 131.51 351.948 131.51 348.01C131.51 344.072 128.318 340.88 124.38 340.88C120.442 340.88 117.25 344.072 117.25 348.01C117.25 351.948 120.442 355.14 124.38 355.14Z" fill="#58AB75"/>
<path d="M547.25 349.49C549.658 349.49 551.61 347.538 551.61 345.13C551.61 342.722 549.658 340.77 547.25 340.77C544.842 340.77 542.89 342.722 542.89 345.13C542.89 347.538 544.842 349.49 547.25 349.49Z" fill="#58AB75"/>
<path d="M483.129 357.61L487.129 357.52C487.208 357.517 487.285 357.54 487.349 357.586C487.412 357.631 487.46 357.696 487.484 357.77C487.507 357.845 487.506 357.925 487.48 357.999C487.454 358.073 487.405 358.137 487.339 358.18L484.059 360.45C483.995 360.494 483.946 360.557 483.921 360.631C483.896 360.705 483.895 360.785 483.919 360.86L485.239 364.63C485.267 364.703 485.27 364.784 485.248 364.86C485.226 364.935 485.179 365.001 485.115 365.048C485.052 365.094 484.975 365.119 484.896 365.117C484.817 365.116 484.741 365.089 484.679 365.04L481.509 362.62C481.446 362.571 481.369 362.545 481.289 362.545C481.21 362.545 481.132 362.571 481.069 362.62L477.899 365.04C477.838 365.089 477.761 365.116 477.683 365.117C477.604 365.119 477.527 365.094 477.463 365.048C477.4 365.001 477.353 364.935 477.331 364.86C477.308 364.784 477.311 364.703 477.339 364.63L478.659 360.86C478.684 360.785 478.683 360.705 478.658 360.631C478.633 360.557 478.584 360.494 478.519 360.45L475.239 358.18C475.174 358.137 475.125 358.073 475.099 357.999C475.073 357.925 475.071 357.845 475.095 357.77C475.119 357.696 475.166 357.631 475.23 357.586C475.294 357.54 475.371 357.517 475.449 357.52L479.449 357.61C479.527 357.611 479.603 357.588 479.666 357.543C479.729 357.498 479.776 357.434 479.799 357.36L480.949 353.53C480.974 353.459 481.02 353.398 481.081 353.355C481.142 353.311 481.215 353.288 481.289 353.288C481.364 353.288 481.437 353.311 481.498 353.355C481.559 353.398 481.605 353.459 481.629 353.53L482.779 357.36C482.803 357.434 482.85 357.498 482.913 357.543C482.976 357.588 483.052 357.611 483.129 357.61Z" fill="#58AB75"/>
<path d="M30.3304 156.96C30.3304 158.14 30.4671 159.284 30.7404 160.39C31.2671 162.484 30.8637 162.683 29.5304 160.99C27.1571 157.983 25.0737 154.75 23.2804 151.29C23.0534 150.849 22.6882 150.494 22.2404 150.28C8.33374 143.513 1.02373 132.21 0.310399 116.37C-0.459601 99.2102 7.1704 79.7302 16.8704 66.5302C26.0404 54.0602 36.1604 41.7502 41.2604 27.6002C42.1271 25.1935 43.2071 23.2269 44.5004 21.7002C54.2704 10.1402 66.0104 4.12017 80.7404 2.53017C86.2204 1.94351 91.6671 1.45685 97.0804 1.07018C104.014 0.570183 109.86 2.52019 114.62 6.92019C117.86 9.92019 121.07 13.0268 124.25 16.2402C124.96 16.9502 125.7 17.1302 126.7 17.0202C137.54 15.8902 149.05 16.8902 158.63 22.1002C168.79 27.6302 177.02 37.3702 183.4 47.0102C184.147 48.1369 184.83 49.2768 185.45 50.4302C185.824 51.1302 185.674 51.2735 185 50.8602C174.96 44.6602 164.89 40.4502 153.13 39.6502C152.337 39.5968 152.24 39.8302 152.84 40.3502C167.09 52.7802 179.06 67.9802 189.54 84.6502C193.26 90.5635 197.094 96.1468 201.04 101.4C203.71 104.95 207.38 108.1 211.94 108.62C226.06 110.23 240.73 109.87 255.03 108.22C272.05 106.267 288.13 104.5 303.27 102.92C338.87 99.2135 373.527 100.567 407.24 106.98C417.9 109.01 415.08 126.27 402.97 124.06C394.13 122.447 385.23 121.047 376.27 119.86C355.064 117.04 333.227 116.613 310.76 118.58C304.694 119.113 291.334 120.613 270.68 123.08C256.61 124.76 243.04 125.57 228.84 125.84C224.91 125.92 220.89 129.18 218.55 132.03C215.824 135.37 213.13 138.614 210.47 141.76C209.41 143.02 208.1 144.01 206.64 144.74C205.82 145.153 205.624 144.95 206.05 144.13C207.9 140.59 209.71 134.15 206.74 130.85C206.576 130.668 206.372 130.526 206.144 130.434C205.917 130.342 205.672 130.303 205.427 130.321C205.183 130.338 204.947 130.411 204.736 130.534C204.525 130.657 204.345 130.827 204.21 131.03C203.257 132.484 202.547 133.86 202.08 135.16C199.234 143.14 194.584 150.273 188.13 156.56C186.997 157.66 186.75 157.487 187.39 156.04C188.62 153.25 190.26 150.69 191.2 147.72C197.44 127.88 185.13 104.94 173.56 89.2402C160.694 71.7868 145.477 56.5202 127.91 43.4402C127.708 43.2872 127.47 43.1885 127.218 43.1535C126.966 43.1185 126.708 43.1483 126.47 43.2402L115.61 47.3702C115.196 47.532 114.741 47.5461 114.32 47.4102C102.77 43.7702 94.8904 33.9602 99.8004 21.5402C100.074 20.8602 100.56 20.4168 101.26 20.2102C102.48 19.8568 102.507 19.4302 101.34 18.9302C100.447 18.5502 99.5071 18.4002 98.5204 18.4802C93.4871 18.8802 88.1337 19.4802 82.4604 20.2802C75.3504 21.2802 65.5604 23.4902 60.7904 28.8202C59.3237 30.4535 57.9537 32.9935 56.6804 36.4402C52.5004 47.7302 44.9304 58.5302 37.5904 67.9602C29.8804 77.8602 24.4404 86.5102 20.6304 97.5802C20.5943 97.685 20.586 97.7975 20.6063 97.9065C20.6267 98.0155 20.6751 98.1173 20.7466 98.202C20.8182 98.2867 20.9106 98.3513 21.0147 98.3896C21.1188 98.4278 21.231 98.4384 21.3404 98.4202C26.1904 97.5902 33.0704 97.6702 36.8204 101.21C44.1304 108.12 27.0504 122.07 18.4304 115.34C17.8637 114.9 17.6304 115.033 17.7304 115.74L18.3204 120.09C18.3653 120.424 18.5083 120.736 18.731 120.988C18.9537 121.239 19.246 121.417 19.5704 121.5C29.6904 124.07 38.2204 122.49 48.1704 119.2C50.1237 118.554 50.2971 118.874 48.6904 120.16C41.7371 125.74 33.6704 128.517 24.4904 128.49C24.3057 128.49 24.1245 128.541 23.9674 128.638C23.8103 128.735 23.6835 128.874 23.6013 129.04C23.5191 129.205 23.4848 129.39 23.5023 129.574C23.5198 129.758 23.5885 129.933 23.7004 130.08C24.4404 131.047 25.3337 131.847 26.3804 132.48C32.8671 136.414 39.9237 137.45 47.5504 135.59C51.0104 134.743 54.4537 133.973 57.8804 133.28C67.6304 131.31 79.2504 135.2 88.2504 139.25C104.35 146.49 110.07 161.67 111.12 178.24C111.76 188.38 111.327 197.96 109.82 206.98C108.82 212.94 108.18 218.077 107.9 222.39C106.874 238.277 111.784 252.95 122.63 266.41C124.597 268.843 126.744 271.337 129.07 273.89C132.5 277.63 132.37 283 128.61 286.36C125.55 289.09 120.32 289.57 117.11 286.57C98.7704 269.43 89.0304 245.54 90.3104 220.92C90.4571 218.147 91.2338 212.204 92.6404 203.09C93.7471 195.95 94.1037 188.347 93.7104 180.28C93.3904 173.71 92.0004 165.44 87.8204 160.19C86.2204 158.184 83.6804 156.44 80.2004 154.96C72.2304 151.59 65.6104 149.14 56.8304 151.35C55.1304 151.78 54.5104 152.99 53.9104 154.47C51.8104 159.724 51.2337 164.993 52.1804 170.28C52.1956 170.362 52.1865 170.446 52.154 170.522C52.1216 170.598 52.0673 170.664 51.9975 170.71C51.9278 170.757 51.8457 170.782 51.7611 170.784C51.6764 170.786 51.5929 170.764 51.5204 170.72C49.7137 169.58 48.1104 168.18 46.7104 166.52C45.9437 165.62 45.6771 165.75 45.9104 166.91C46.6171 170.424 48.0737 173.92 50.2804 177.4C50.3192 177.462 50.3354 177.536 50.3263 177.609C50.3172 177.682 50.2833 177.749 50.2304 177.8C50.1171 177.907 49.9971 177.954 49.8704 177.94C49.7971 177.934 49.7304 177.91 49.6704 177.87C41.3704 172.337 35.0904 165.33 30.8304 156.85C30.5037 156.204 30.3371 156.24 30.3304 156.96ZM127.08 25.7902C143.01 23.3202 156.75 26.2002 168.55 36.7402C168.564 36.7468 168.574 36.7435 168.58 36.7302L168.73 36.3902C168.758 36.3337 168.768 36.2713 168.761 36.2109C168.754 36.1504 168.729 36.0945 168.69 36.0502C158.904 24.2435 146.244 19.2668 130.71 21.1202C122.644 22.0802 115.84 23.1335 110.3 24.2802C110.1 24.3268 109.974 24.4469 109.92 24.6402C109.42 26.5602 109.107 28.3902 108.98 30.1302C108.979 30.1425 108.981 30.155 108.986 30.1663C108.992 30.1776 109 30.1873 109.01 30.1945C109.02 30.2016 109.032 30.2059 109.044 30.2069C109.057 30.2079 109.069 30.2056 109.08 30.2002C115.094 28.1869 121.094 26.7169 127.08 25.7902ZM32.2104 106.22C32.5504 106.58 32.9071 106.93 33.2804 107.27C33.6004 107.557 33.8204 107.497 33.9404 107.09C34.5204 105.104 34.0704 103.663 32.5904 102.77C32.2174 102.551 31.7751 102.48 31.3504 102.57C27.6004 103.41 25.3804 106.27 23.6504 109.67C22.8704 111.224 23.0837 111.377 24.2904 110.13C25.7004 108.67 29.9604 103.87 32.2104 106.22Z" fill="#E3925B"/>
<path d="M101.601 111.99C107.694 111.53 112.897 109.887 117.211 107.06C129.351 99.0866 135.828 87.6833 136.641 72.85C136.934 67.4166 135.388 62.0566 132.001 56.77C131.881 56.5833 131.864 56.3866 131.951 56.18C131.984 56.0933 132.044 56.03 132.131 55.99C132.183 55.9688 132.239 55.9614 132.294 55.9684C132.348 55.9754 132.399 55.9967 132.441 56.03C155.601 74.81 142.591 107.53 121.251 120.15C115.524 123.537 108.971 125.39 101.591 125.71C98.8975 125.823 96.5708 125.237 94.6108 123.95C85.9608 118.28 86.1208 109.48 89.3408 100.72C92.9108 91.03 97.7508 81.41 98.9208 71.07C99.0675 69.79 99.3908 69.7433 99.8908 70.93C104.031 80.65 99.8008 92.56 97.9608 102.34C97.2075 106.373 98.0642 109.47 100.531 111.63C100.837 111.903 101.194 112.023 101.601 111.99Z" fill="#E3925B"/>
<path d="M570.75 88.8904C573.037 88.8904 574.89 87.0368 574.89 84.7504C574.89 82.4639 573.037 80.6104 570.75 80.6104C568.464 80.6104 566.61 82.4639 566.61 84.7504C566.61 87.0368 568.464 88.8904 570.75 88.8904Z" fill="#E3925B"/>
<path d="M509.09 107.86C513.028 107.86 516.22 104.668 516.22 100.73C516.22 96.7923 513.028 93.6001 509.09 93.6001C505.152 93.6001 501.96 96.7923 501.96 100.73C501.96 104.668 505.152 107.86 509.09 107.86Z" fill="#E3925B"/>
<path d="M578.561 115.29L589.631 115.46C589.741 115.461 589.847 115.497 589.935 115.564C590.023 115.631 590.086 115.724 590.117 115.829C590.147 115.935 590.142 116.048 590.103 116.151C590.064 116.253 589.993 116.341 589.901 116.4L580.531 122.31C580.437 122.371 580.366 122.46 580.328 122.565C580.29 122.67 580.288 122.784 580.321 122.89L583.581 133.47C583.611 133.574 583.608 133.686 583.57 133.788C583.533 133.89 583.465 133.978 583.374 134.038C583.284 134.098 583.176 134.128 583.068 134.123C582.959 134.118 582.855 134.078 582.771 134.01L574.251 126.93C574.164 126.859 574.056 126.819 573.944 126.815C573.832 126.811 573.722 126.845 573.631 126.91L564.581 133.28C564.491 133.343 564.384 133.376 564.274 133.373C564.165 133.371 564.059 133.333 563.973 133.266C563.887 133.199 563.824 133.105 563.795 133C563.766 132.894 563.771 132.782 563.811 132.68L567.911 122.39C567.954 122.286 567.961 122.171 567.932 122.063C567.904 121.955 567.84 121.859 567.751 121.79L558.891 115.15C558.806 115.083 558.744 114.991 558.715 114.887C558.686 114.783 558.691 114.672 558.729 114.571C558.766 114.47 558.835 114.383 558.926 114.324C559.016 114.264 559.123 114.235 559.231 114.24L570.271 114.96C570.384 114.968 570.497 114.938 570.591 114.874C570.685 114.811 570.755 114.718 570.791 114.61L574.371 104.14C574.405 104.035 574.473 103.944 574.565 103.881C574.656 103.818 574.765 103.786 574.876 103.79C574.986 103.795 575.093 103.835 575.178 103.906C575.264 103.976 575.325 104.072 575.351 104.18L578.071 114.91C578.099 115.019 578.163 115.114 578.251 115.183C578.34 115.252 578.449 115.289 578.561 115.29Z" fill="#E3925B"/>
<path d="M617.681 122.21L621.621 122.3C621.697 122.302 621.771 122.328 621.832 122.375C621.892 122.422 621.936 122.487 621.958 122.56C621.979 122.634 621.976 122.712 621.95 122.784C621.923 122.856 621.874 122.918 621.811 122.96L618.491 125.1C618.426 125.142 618.377 125.203 618.35 125.275C618.323 125.347 618.32 125.426 618.341 125.5L619.471 129.28C619.495 129.354 619.494 129.434 619.469 129.507C619.444 129.581 619.396 129.644 619.331 129.688C619.267 129.732 619.191 129.754 619.113 129.751C619.035 129.748 618.961 129.719 618.901 129.67L615.841 127.17C615.781 127.121 615.706 127.092 615.629 127.089C615.551 127.085 615.475 127.107 615.411 127.15L612.161 129.4C612.097 129.445 612.021 129.467 611.943 129.465C611.865 129.462 611.791 129.435 611.73 129.387C611.669 129.338 611.626 129.272 611.606 129.197C611.586 129.121 611.591 129.042 611.621 128.97L613.051 125.29C613.08 125.218 613.086 125.137 613.066 125.062C613.046 124.986 613.002 124.919 612.941 124.87L609.801 122.48C609.737 122.434 609.691 122.368 609.668 122.293C609.645 122.218 609.647 122.138 609.675 122.064C609.702 121.991 609.752 121.928 609.818 121.886C609.884 121.843 609.962 121.824 610.041 121.83L613.981 122.06C614.058 122.064 614.136 122.043 614.201 122C614.266 121.957 614.315 121.894 614.341 121.82L615.651 118.09C615.678 118.02 615.727 117.961 615.789 117.92C615.852 117.879 615.926 117.859 616.001 117.863C616.076 117.866 616.148 117.893 616.207 117.939C616.266 117.985 616.309 118.048 616.331 118.12L617.341 121.94C617.36 122.016 617.404 122.083 617.465 122.132C617.527 122.181 617.602 122.208 617.681 122.21Z" fill="#E3925B"/>
<path d="M663.99 155.92C667.928 155.92 671.12 152.728 671.12 148.79C671.12 144.852 667.928 141.66 663.99 141.66C660.053 141.66 656.86 144.852 656.86 148.79C656.86 152.728 660.053 155.92 663.99 155.92Z" fill="#E3925B"/>
<path d="M22.1308 229.21C26.063 229.21 29.2507 226.023 29.2507 222.09C29.2507 218.158 26.063 214.97 22.1308 214.97C18.1985 214.97 15.0107 218.158 15.0107 222.09C15.0107 226.023 18.1985 229.21 22.1308 229.21Z" fill="#E3925B"/>
<path d="M50.5206 267.07L54.4406 267.01C54.5189 267.008 54.5958 267.031 54.6597 267.076C54.7237 267.121 54.7711 267.186 54.7949 267.261C54.8186 267.336 54.8174 267.416 54.7914 267.49C54.7653 267.564 54.7159 267.627 54.6506 267.67L51.4506 269.93C51.3877 269.976 51.341 270.04 51.3176 270.114C51.2942 270.188 51.2952 270.267 51.3206 270.34L52.5806 274.05C52.6049 274.123 52.6052 274.202 52.5814 274.276C52.5576 274.349 52.511 274.412 52.4483 274.457C52.3857 274.502 52.3103 274.525 52.2333 274.524C52.1563 274.523 52.0818 274.497 52.0206 274.45L48.8906 272.1C48.8275 272.052 48.7502 272.025 48.6706 272.025C48.5909 272.025 48.5136 272.052 48.4506 272.1L45.3206 274.45C45.2594 274.497 45.1848 274.523 45.1078 274.524C45.0308 274.525 44.9555 274.502 44.8928 274.457C44.8302 274.412 44.7835 274.349 44.7597 274.276C44.7359 274.202 44.7362 274.123 44.7606 274.05L46.0206 270.34C46.0459 270.267 46.047 270.188 46.0235 270.114C46.0001 270.04 45.9535 269.976 45.8906 269.93L42.6906 267.67C42.6253 267.627 42.5758 267.564 42.5498 267.49C42.5237 267.416 42.5225 267.336 42.5462 267.261C42.57 267.186 42.6174 267.121 42.6814 267.076C42.7453 267.031 42.8223 267.008 42.9006 267.01L46.8206 267.07C46.898 267.072 46.9739 267.048 47.037 267.003C47.1001 266.958 47.1469 266.894 47.1706 266.82L48.3306 263.07C48.3551 263 48.4011 262.939 48.462 262.895C48.5229 262.852 48.5958 262.829 48.6706 262.829C48.7453 262.829 48.8182 262.852 48.8791 262.895C48.9401 262.939 48.986 263 49.0106 263.07L50.1706 266.82C50.1942 266.894 50.2411 266.958 50.3041 267.003C50.3672 267.048 50.4431 267.072 50.5206 267.07Z" fill="#E3925B"/>
<path d="M664.52 331.25C668.453 331.25 671.64 328.063 671.64 324.13C671.64 320.198 668.453 317.01 664.52 317.01C660.588 317.01 657.4 320.198 657.4 324.13C657.4 328.063 660.588 331.25 664.52 331.25Z" fill="#E3925B"/>
<path d="M64.1705 331.23C66.4625 331.23 68.3205 329.372 68.3205 327.08C68.3205 324.788 66.4625 322.93 64.1705 322.93C61.8785 322.93 60.0205 324.788 60.0205 327.08C60.0205 329.372 61.8785 331.23 64.1705 331.23Z" fill="#E3925B"/>
<path d="M436.681 330.73C438.641 330.73 440.231 329.141 440.231 327.18C440.231 325.22 438.641 323.63 436.681 323.63C434.72 323.63 433.131 325.22 433.131 327.18C433.131 329.141 434.72 330.73 436.681 330.73Z" fill="#E3925B"/>
<path d="M228.53 356.02L239.59 355.76C239.698 355.757 239.804 355.789 239.892 355.851C239.98 355.913 240.046 356.001 240.079 356.103C240.113 356.206 240.113 356.316 240.079 356.418C240.045 356.52 239.979 356.609 239.89 356.67L230.79 362.97C230.699 363.032 230.631 363.123 230.597 363.228C230.562 363.333 230.564 363.446 230.6 363.55L234.26 374C234.293 374.101 234.294 374.209 234.261 374.31C234.229 374.411 234.165 374.499 234.08 374.561C233.994 374.623 233.891 374.657 233.785 374.657C233.679 374.656 233.576 374.623 233.49 374.56L224.68 367.85C224.594 367.785 224.489 367.75 224.38 367.75C224.272 367.75 224.167 367.785 224.08 367.85L215.27 374.56C215.185 374.623 215.082 374.656 214.976 374.657C214.87 374.657 214.767 374.623 214.681 374.561C214.596 374.499 214.532 374.411 214.499 374.31C214.467 374.209 214.467 374.101 214.5 374L218.16 363.55C218.197 363.446 218.198 363.333 218.164 363.228C218.13 363.123 218.062 363.032 217.97 362.97L208.87 356.67C208.782 356.609 208.716 356.52 208.682 356.418C208.648 356.316 208.648 356.206 208.681 356.103C208.715 356.001 208.781 355.913 208.869 355.851C208.957 355.789 209.063 355.757 209.17 355.76L220.23 356.02C220.34 356.022 220.448 355.988 220.536 355.923C220.625 355.858 220.69 355.766 220.72 355.66L223.9 345.06C223.931 344.956 223.994 344.865 224.08 344.8C224.167 344.735 224.272 344.7 224.38 344.7C224.489 344.7 224.594 344.735 224.68 344.8C224.767 344.865 224.83 344.956 224.86 345.06L228.04 355.66C228.071 355.766 228.136 355.858 228.224 355.923C228.313 355.988 228.42 356.022 228.53 356.02Z" fill="#E3925B"/>
<path d="M630.08 352.62L635.82 352.54C635.899 352.539 635.975 352.564 636.039 352.609C636.103 352.655 636.151 352.72 636.175 352.795C636.2 352.869 636.2 352.95 636.176 353.025C636.151 353.099 636.104 353.164 636.04 353.21L631.34 356.5C631.275 356.546 631.226 356.611 631.2 356.687C631.175 356.763 631.175 356.844 631.2 356.92L633.05 362.36C633.073 362.434 633.073 362.514 633.048 362.588C633.023 362.661 632.976 362.725 632.913 362.771C632.85 362.816 632.774 362.84 632.697 362.84C632.619 362.84 632.543 362.816 632.48 362.77L627.9 359.32C627.836 359.271 627.757 359.244 627.675 359.244C627.594 359.244 627.515 359.271 627.45 359.32L622.86 362.75C622.797 362.796 622.722 362.82 622.644 362.82C622.566 362.82 622.49 362.796 622.427 362.751C622.364 362.705 622.317 362.641 622.293 362.568C622.268 362.494 622.267 362.414 622.29 362.34L624.15 356.91C624.176 356.835 624.178 356.754 624.154 356.679C624.131 356.603 624.084 356.537 624.02 356.49L619.33 353.18C619.267 353.134 619.219 353.069 619.195 352.995C619.171 352.92 619.171 352.839 619.195 352.765C619.22 352.69 619.267 352.625 619.331 352.579C619.395 352.534 619.472 352.509 619.55 352.51L625.29 352.61C625.37 352.612 625.449 352.587 625.514 352.54C625.579 352.493 625.626 352.427 625.65 352.35L627.34 346.87C627.363 346.793 627.409 346.726 627.473 346.678C627.537 346.63 627.615 346.604 627.695 346.604C627.775 346.604 627.853 346.63 627.917 346.678C627.981 346.726 628.028 346.793 628.05 346.87L629.73 352.36C629.753 352.435 629.8 352.501 629.863 352.547C629.926 352.594 630.002 352.619 630.08 352.62Z" fill="#E3925B"/>
<path d="M372.05 371.21C375.988 371.21 379.18 368.018 379.18 364.08C379.18 360.142 375.988 356.95 372.05 356.95C368.112 356.95 364.92 360.142 364.92 364.08C364.92 368.018 368.112 371.21 372.05 371.21Z" fill="#E3925B"/>
</g>
<defs>
<clipPath id="clip0_429_297">
<rect width="672" height="375" fill="white"/>
</clipPath>
</defs>
</svg>
